<svg xmlns="http://www.w3.org/2000/svg" width="146" height="155" viewBox="0 0 146 155"><g fill="none" fill-rule="evenodd" transform="translate(2)"><circle cx="71" cy="82" r="71" fill="#FCFAF9" stroke="#ECDCCD" stroke-linecap="round" stroke-linejoin="round" stroke-width="4"/><path fill="#B38F6C" fill-rule="nonzero" d="M14 121.254a2 2 0 1 1-4 0v-62.7c0-2.5 2.015-4.554 4.5-4.554h30.001C47.008 54 49 56.048 49 58.555v64.89c0 2.514-1.99 4.555-4.499 4.555H15.5a2 2 0 0 1 0-4h29.001c.277 0 .499-.228.499-.555v-64.89c0-.322-.227-.555-.499-.555h-30c-.26 0-.501.246-.501.555v62.7z"/><path fill="#EDE4DC" d="M41 58h5v66h-5z"/><path fill="#FCFAF9" d="M79.273 52.756h44.954c6.515 2.504 9.773 6.26 9.773 11.268 0 5.009-3.258 8.139-9.773 9.39 3.91 2.505 5.864 5.635 5.864 9.39 0 3.757-2.606 6.887-7.818 9.391 5.212 1.252 7.818 3.756 7.818 7.512s-2.606 6.886-7.818 9.39c3.909 2.505 5.863 5.635 5.863 9.39 0 3.757-1.954 6.261-5.863 7.513H55.818c-5.212-2.504-7.818-5.008-7.818-7.512V54.634l3.91-3.756L79.272 49v3.756z"/><path fill="#B38F6C" fill-rule="nonzero" d="M110.111 124a2 2 0 1 1 0 4H59.955C51.841 128 46 122.878 46 115.942V58.836c0-1.194.173-2.505.494-3.7a2 2 0 1 1 3.863 1.036c-.23.858-.357 1.82-.357 2.664v57.106c0 4.601 3.942 8.058 9.955 8.058h50.156zm11.65-69.855l-42.709-.068a2 2 0 0 1 .007-4l42.705.068c8.663 0 14.236 4.192 14.236 12.553 0 .245-.034.468-.096.668-.607 7.828-5.837 11.821-14.035 12.172h-9.012a2 2 0 1 1 0-4l8.926.002c6.67-.287 10.18-3.235 10.18-9.746l.001-.08c-.387-5.182-3.924-7.57-10.203-7.57zm-2.094 39.278c-2.667 0-2.667-4 0-4 4.126 0 7.555-3.768 7.555-8.496 0-3.867-2.341-5.389-7.555-5.389a2 2 0 1 1 0-4c7.154 0 11.555 2.86 11.555 9.389 0 6.29-4.316 11.553-9.987 12.382a1.997 1.997 0 0 1-.666.114h-.902zm-4.778 0a2 2 0 1 1 0-4h6.716c5.938 0 10.812 4.548 10.812 10.228 0 5.628-4.789 10.186-10.812 10.464h-6.716a2 2 0 1 1 0-4l6.623.003c3.875-.181 6.905-3.065 6.905-6.467 0-3.406-3.024-6.228-6.812-6.228h-6.716zm5.219 16.692a2 2 0 0 1 0-4c5.285 0 9.92 6.808 9.92 12.459 0 5.237-4.465 9.426-9.92 9.426h-9.997a2 2 0 0 1 0-4h9.997c3.301 0 5.92-2.457 5.92-5.426 0-3.695-3.243-8.459-5.92-8.459zM25 110.992A5.002 5.002 0 0 0 29.994 116 5.002 5.002 0 0 0 35 110.992 5 5 0 0 0 29.994 106 5 5 0 0 0 25 110.992zm-2 0c0-3.857 3.137-6.992 6.994-6.992 3.87 0 7.006 3.132 7.006 6.992A7.002 7.002 0 0 1 29.994 118c-3.86 0-6.994-3.137-6.994-7.008z"/><circle cx="71" cy="82" r="71" stroke="#ECDCCD" stroke-linecap="round" stroke-linejoin="round" stroke-width="4"/><path fill="#FCFAF9" d="M48.432 55.582l-.432.072c1.296-3.25 4.035-12.43 8.9-20.47 3.332-5.49 6.733-11.18 7.802-14.033 1.813-4.87 1.804-11.432 1.656-13.532-.102-1.5.567-2.925 1.772-3.678C68.43 3.733 71.241 2 74.886 2c2.336 0 4.462.683 6.358 2.032 5.171 3.644 6.987 9.343 5.845 21.13-.347 3.708-1.8 7.202-3.208 10.574-.945 2.215-1.648 4.58-2.302 6.285-.904 2.284-2.497 8.444-2.497 8.444"/><path fill="#B38F6C" fill-rule="nonzero" d="M50.405 55.252a2 2 0 0 1-1.644 2.302l-.432.073c-1.537.256-2.764-1.266-2.187-2.714.252-.63 1.86-5.148 2.429-6.662 1.377-3.66 2.77-6.92 4.36-10.033a64.57 64.57 0 0 1 2.26-4.072c4.548-7.493 6.797-11.454 7.637-13.693 1.345-3.612 1.79-9.055 1.535-12.698-.153-2.229.867-4.36 2.625-5.456.505-.35 1.459-.855 2.549-1.274C71.212.382 73.013 0 74.887 0c2.746 0 5.279.81 7.51 2.397 5.992 4.223 7.863 10.776 6.683 22.95-.314 3.356-1.153 5.89-3.36 11.174-.156.368-.313.756-.472 1.17-.38.988-1.565 4.428-1.81 5.066-.225.571-.53 1.5-.888 2.691a172.052 172.052 0 0 0-1.532 5.517 2 2 0 1 1-3.872-1l.106-.408a199.024 199.024 0 0 1 1.182-4.29c.097-.335.192-.658.285-.967.387-1.292.722-2.311.993-2.995.203-.531 1.389-3.974 1.802-5.05.176-.457.35-.89.521-1.29 2.046-4.898 2.799-7.171 3.063-9.996 1.056-10.9-.42-16.07-5.013-19.307A8.736 8.736 0 0 0 74.886 4c-2.335 0-4.574.86-5.696 1.637-.553.346-.89 1.052-.837 1.842.292 4.157-.197 10.126-1.778 14.373-.971 2.592-3.233 6.575-7.964 14.367a60.571 60.571 0 0 0-2.118 3.818c-1.512 2.963-2.85 6.091-4.178 9.623-.394 1.045-1.347 3.708-1.957 5.383.02.068.035.138.047.21z"/></g></svg>