<svg width="21" height="21" viewBox="0 0 21 21" xmlns="http://www.w3.org/2000/svg"><g fill="#FFF" fill-rule="evenodd"><path d="M7.114 12H1.6c-.358 0-.648.303-.648.677 0 .373.29.677.648.677H5.69l-5.5 5.803a.739.739 0 0 0 0 .989.65.65 0 0 0 .46.214c.165 0 .25-.058.377-.19l5.277-5.584v3.972c0 .374.29.677.648.677.358 0 .649-.303.649-.677v-5.753c0-.373-.128-.805-.486-.805M18.441.22L13.286 5.68v-3.76c0-.382-.288-.692-.643-.692-.355 0-.643.31-.643.692V7.8c0 .38.449.559.803.559h5.464c.355 0 .643-.31.643-.692 0-.381-.288-.691-.643-.691h-4.33l5.494-5.845c.25-.27.21-.675-.04-.945-.251-.27-.699-.237-.95.033M12.486 12H18c.358 0 .648.303.648.677 0 .373-.29.677-.648.677H13.91l5.5 5.803a.739.739 0 0 1 0 .989.65.65 0 0 1-.46.214c-.165 0-.25-.058-.377-.19l-5.277-5.584v3.972c0 .374-.29.677-.648.677-.358 0-.649-.303-.649-.677v-5.753c0-.373.128-.805.486-.805M1.159.22L6.314 5.68v-3.76c0-.382.288-.692.643-.692.355 0 .643.31.643.692V7.8c0 .38-.449.559-.803.559H1.333c-.355 0-.643-.31-.643-.692 0-.381.288-.691.643-.691h4.33L.168 1.132C-.08.862-.04.457.21.187c.251-.27.699-.237.95.033"/></g></svg>