<svg width="24" height="24" viewBox="0 0 24 24" xmlns="http://www.w3.org/2000/svg"><title>46C620F7-1417-4C22-900B-2B3EFAAC76A9</title><path d="M12.188 0C4.824-.11-1.086 6.484.155 14.031 1 19.152 5.203 23.18 10.344 23.875c3.465.469 6.703-.531 9.156-2.5l-1.25-1.563c-2.047 1.641-4.738 2.489-7.656 2.094-4.254-.574-7.742-3.953-8.438-8.187C1.11 7.348 5.992 1.91 12.156 2c5.254.078 9.684 4.434 9.844 9.688.004.113 0 .222 0 .343A3.984 3.984 0 0 1 18 16c-1.117 0-2-.883-2-2V6h-2v.781A4.43 4.43 0 0 0 11.5 6 4.516 4.516 0 0 0 7 10.5v3c0 2.473 2.027 4.5 4.5 4.5 1.348 0 2.547-.613 3.375-1.563C15.609 17.372 16.73 18 18 18c3.285 0 5.988-2.68 6-5.969 0-.133.004-.261 0-.406C23.809 5.289 18.523.094 12.187 0zM11.5 8c1.39 0 2.5 1.11 2.5 2.5v3c0 1.39-1.11 2.5-2.5 2.5S9 14.89 9 13.5v-3C9 9.11 10.11 8 11.5 8z" fill="#FF3747" fill-rule="nonzero"/></svg>