<svg width="26" height="26" viewBox="0 0 26 26"><path fill="#b38f6c" d="M17.375 12.285L11.09 8.584c-.436-.307-.896-.345-1.264-.153-.656.34-.63 1.224-.624 1.963L9.25 16.2c.007.759.026 1.633.675 2.024.385.231.862.241 1.29-.077l6.184-3.839c.761-.568.749-1.477-.024-2.023zM12.999.291C5.865.291.082 6.074.082 13.209c0 7.134 5.783 12.917 12.917 12.917 7.135 0 12.919-5.783 12.919-12.917 0-7.135-5.784-12.918-12.919-12.918zm0 23.369c-5.769 0-10.448-4.675-10.448-10.449 0-5.769 4.679-10.446 10.448-10.446 5.77 0 10.449 4.678 10.449 10.446 0 5.774-4.679 10.449-10.449 10.449z"/></svg>