<svg xmlns="http://www.w3.org/2000/svg" width="105" height="81" viewBox="0 0 105 81"><g fill="none" fill-rule="evenodd" stroke="#B38F6C" stroke-linecap="round" stroke-linejoin="round" stroke-width="2"><path fill="#FCFAF9" d="M13.493 40.25c0-21.541 17.46-39 39-39s39 17.459 39 39c0 21.54-17.46 39-39 39s-39-17.46-39-39z"/><path fill="#FCFAF9" d="M47.831 60.787a4.618 4.618 0 1 1 9.236 0 4.618 4.618 0 0 1-9.236 0zm0-42.177a2.738 2.738 0 0 1 2.738-2.738h3.746a2.738 2.738 0 0 1 2.74 2.738l-2.74 31.942H50.57L47.831 18.61z"/><path d="M16.26 76.483c-20.013-20.012-20.013-52.455 0-72.466m72.467 0c20.011 20.012 20.011 52.454 0 72.466"/></g></svg>