<svg width="46" height="46" viewBox="0 0 46 46" xmlns="http://www.w3.org/2000/svg" xmlns:xlink="http://www.w3.org/1999/xlink"><title>6F47640F-BF49-4BA5-B6EE-D02CC05A4BB4@2x</title><defs><path id="a" d="M0 0h1v3777H0z"/><mask id="b" x="0" y="0" width="1" height="3777" fill="#fff"><use xlink:href="#a"/></mask></defs><g fill="none" fill-rule="evenodd"><use mask="url(#b)" xlink:href="#a" opacity=".1" transform="translate(0 -753)" stroke="#000" stroke-dasharray="6,6" stroke-width="2"/><path d="M10.146 5L6.091 15.858H9.38l2.903-7.775h22.442l2.903 7.775h3.276L36.848 5H10.146zM2 17.333v9.25h1.932L8.539 42h29.928l4.607-15.417H45v-9.25H2zm3.071 3.084H41.93V23.5h-1.146l-4.607 15.417H10.818L6.211 23.5h-1.14v-3.083zm10.75 4.625v10.791h3.072V25.042H15.82zm6.143 0v10.791h3.072V25.042h-3.072zm6.143 0v10.791h3.072V25.042h-3.072z" fill="#FF3747" fill-rule="nonzero"/></g></svg>