<svg xmlns="http://www.w3.org/2000/svg" width="239" height="38" viewBox="0 0 239 38"><g fill="none"><path fill="#333" d="M28.376 11.4c0-1.9-1.728-3.61-4.608-3.61-3.648 0-6.336 3.42-6.336 14.25 0 9.5 1.92 13.68 6.144 13.68 3.264 0 4.992-2.28 5.76-4.56.192-.57.576-.76.768-.76.192 0 .384.19.384.57 0 .57-.384 1.33-.768 2.09-.96 2.09-3.072 4.37-7.104 4.37-7.296 0-10.752-6.46-10.752-15.39 0-10.45 4.224-15.39 10.944-15.39 5.184 0 7.68 3.23 7.68 7.41 0 2.47-1.344 3.61-2.688 3.61s-2.496-.95-2.496-2.28c.192-2.28 3.072-2.28 3.072-3.99zM50.84 26.79c0 6.65-3.072 10.64-8.064 10.64s-8.064-3.99-8.064-10.64 3.072-10.64 8.064-10.64c4.8 0 8.064 3.8 8.064 10.64zm-4.8 0c0-7.03-1.152-9.69-3.264-9.69s-3.264 2.66-3.264 9.69c0 7.03 1.152 9.69 3.264 9.69s3.264-2.66 3.264-9.69zM61.4 36.1h-.384c-.576 0-.96-.38-.96-1.14V3.8h-6.144c-.384 0-.576.19-.576.57 0 .38.192.57.576.57h.384c.576 0 .96.38.96 1.14v29.07c0 .57-.384 1.14-.96 1.14h-.384c-.384 0-.576.19-.576.57 0 .38.192.57.576.57H61.4c.384 0 .576-.19.576-.57 0-.57-.192-.76-.576-.76zm21.312 0h-.384c-.576 0-.96-.38-.96-1.14V16.53h-6.144c-.384 0-.576.19-.576.57 0 .38.192.57.576.57h.384c.576 0 .96.38.96 1.14v9.5c0 4.56-1.728 7.41-3.84 7.41-1.152 0-2.112-.95-2.112-3.23V16.53h-6.144c-.384 0-.576.19-.576.57 0 .38.192.57.576.57h.384c.576 0 .96.38.96 1.14V32.3c0 3.42 2.112 5.32 4.992 5.32 2.688 0 4.608-1.71 5.568-4.37v3.99h6.144c.384 0 .576-.19.576-.57.192-.38 0-.57-.384-.57zm31.488 0h-.384c-.576 0-.96-.38-.96-1.14V21.47c0-3.42-1.92-5.32-4.992-5.32-2.688 0-4.608 1.71-5.568 4.37-.384-2.85-2.112-4.37-4.8-4.37-2.88 0-4.8 1.9-5.76 4.94v-4.56h-5.952c-.384 0-.576.19-.576.57 0 .38.192.57.576.57h.384c.576 0 .96.38.96 1.14v16.34c0 .57-.384.95-.96.95h-.384c-.384 0-.576.19-.576.57 0 .38.192.57.576.57h7.488c.384 0 .576-.19.576-.57 0-.38-.192-.57-.576-.57h-.384c-.576 0-.96-.38-.96-1.14v-9.31c0-4.56 1.728-7.41 3.648-7.41 1.152 0 2.112.95 2.112 3.23v13.49c0 .76-.384 1.14-.96 1.14h-.384c-.384 0-.576.19-.576.57 0 .38.192.57.576.57h7.296c.384 0 .576-.19.576-.57 0-.38-.192-.57-.576-.57h-.384c-.576 0-.96-.38-.96-1.14v-8.93c0-4.75 1.536-7.79 3.648-7.79 1.152 0 2.112.95 2.112 3.23v13.49c0 .76-.384 1.14-.96 1.14h-.384c-.384 0-.576.19-.576.57 0 .38.192.57.576.57h7.488c.384 0 .576-.19.576-.57 0-.38-.384-.57-.576-.57zm21.12-9.31c0 7.6-3.264 10.64-6.72 10.64-2.688 0-4.416-1.52-5.184-4.56v4.18h-6.144c-.384 0-.576-.19-.576-.57 0-.38.192-.57.576-.57h.384c.576 0 .96-.38.96-1.14V5.89c0-.57-.384-1.14-.96-1.14h-.384c-.384 0-.576-.19-.576-.57 0-.38.192-.57.576-.57h6.144v16.91c.768-2.85 2.496-4.56 5.184-4.56 3.456.19 6.72 3.23 6.72 10.83zm-4.8 0c0-6.65-1.152-9.12-3.072-9.12-2.496 0-3.84 4.75-3.84 9.12 0 4.56 1.344 9.12 3.84 9.12 1.728 0 3.072-2.47 3.072-9.12zm26.304 9.69c0 .38-.192.57-.576.57h-5.952v-4.18c-.768 2.85-2.496 4.56-5.184 4.56-3.456 0-6.72-3.04-6.72-10.64 0-7.6 3.264-10.64 6.72-10.64 2.688 0 4.416 1.52 5.184 4.56v-4.18h4.608v18.43c0 .57.384 1.14.96 1.14h.384c.192 0 .576.19.576.38zm-6.72-9.69c0-4.56-1.344-9.12-3.84-9.12-1.92 0-3.072 2.47-3.072 9.12 0 6.65 1.152 9.12 3.072 9.12 2.496 0 3.84-4.75 3.84-9.12zm20.16-10.64c-2.304 0-4.416 1.33-5.376 5.51v-5.13h-5.568c-.384 0-.576.19-.576.57 0 .38.192.57.576.57h.384c.576 0 .96.38.96 1.14v16.34c0 .57-.384 1.14-.96 1.14h-.384c-.384 0-.576.19-.576.57 0 .38.192.57.576.57h8.64c.384 0 .576-.19.576-.57 0-.38-.192-.57-.576-.57h-1.536c-.576 0-.96-.38-.96-1.14v-7.98c0-6.27 1.728-9.31 4.032-9.31 1.152 0 1.728.57 1.728 1.33 0 1.14-2.112 1.52-2.112 3.42 0 1.33.96 2.28 2.304 2.28 2.112 0 3.072-1.9 3.072-3.8.192-2.66-1.152-4.94-4.224-4.94zm11.136-5.32c1.344 0 2.688-1.14 2.688-2.66-.192-1.33-1.344-2.47-2.688-2.47-1.536 0-2.688 1.14-2.688 2.66 0 1.33 1.152 2.47 2.688 2.47zm3.648 25.27h-.384c-.576 0-.96-.38-.96-1.14V16.53h-6.144c-.384 0-.576.19-.576.57 0 .38.192.57.576.57h.384c.576 0 .96.38.96 1.14v16.34c0 .57-.384 1.14-.96 1.14h-.384c-.384 0-.576.19-.576.57 0 .38.192.57.576.57h7.488c.384 0 .576-.19.576-.57 0-.57-.192-.76-.576-.76zm21.312 0h-.384c-.576 0-.96-.38-.96-1.14V16.53h-6.144c-.384 0-.576.19-.576.57 0 .38.192.57.576.57h.384c.576 0 .96.38.96 1.14v9.5c0 4.56-1.728 7.41-3.84 7.41-1.152 0-2.112-.95-2.112-3.23V16.53h-6.144c-.384 0-.576.19-.576.57 0 .38.192.57.576.57h.384c.576 0 .96.38.96 1.14V32.3c0 3.42 2.112 5.32 4.992 5.32 2.688 0 4.608-1.71 5.568-4.37v3.99h6.144c.384 0 .576-.19.576-.57.192-.38 0-.57-.384-.57zm31.488 0h-.384c-.576 0-.96-.38-.96-1.14V21.47c0-3.42-1.92-5.32-4.992-5.32-2.688 0-4.608 1.71-5.568 4.37-.384-2.85-2.112-4.37-4.8-4.37-2.88 0-4.8 1.9-5.76 4.94v-4.56h-5.952c-.384 0-.576.19-.576.57 0 .38.192.57.576.57h.384c.576 0 .96.38.96 1.14v16.34c0 .57-.384.95-.96.95h-.384c-.384 0-.576.19-.576.57 0 .38.192.57.576.57h7.488c.384 0 .576-.19.576-.57 0-.38-.192-.57-.576-.57h-.384c-.576 0-.96-.38-.96-1.14v-9.31c0-4.56 1.728-7.41 3.648-7.41 1.152 0 2.112.95 2.112 3.23v13.49c0 .76-.384 1.14-.96 1.14h-.384c-.384 0-.576.19-.576.57 0 .38.192.57.576.57h7.296c.384 0 .576-.19.576-.57 0-.38-.192-.57-.576-.57h-.384c-.576 0-.96-.38-.96-1.14v-8.93c0-4.75 1.536-7.79 3.648-7.79 1.152 0 2.112.95 2.112 3.23v13.49c0 .76-.384 1.14-.96 1.14h-.384c-.384 0-.576.19-.576.57 0 .38.192.57.576.57h7.488c.384 0 .576-.19.576-.57 0-.38-.192-.57-.576-.57z"/><path fill="#907050" d="M2.264 5.7C3.8 4.37 3.992 2.85 3.224.95c0-.19-.192-.38-.192-.38.192 0 .192.19.384.38 5.952 4.94 4.992 8.17 4.608 9.88-.192.95-1.152 1.71-2.112 1.71-1.344 0-2.304-1.14-2.304-2.28 0-.38.192-.76.384-1.14.384-.57.576-1.33.768-2.09-.384.57-.768 1.14-1.152 1.33-1.728 1.52-2.112 2.09-1.536 3.99-3.648-2.09-1.536-5.13.192-6.65zM8.6 36.1h-.384c-.576 0-.96-.38-.96-1.14V16.53H1.112c-.384 0-.576.19-.576.57 0 .38.192.57.576.57h.384c.576 0 .96.38.96 1.14v16.34c0 .57-.384 1.14-.96 1.14h-.384c-.384 0-.576.19-.576.57 0 .38.192.57.576.57H8.6c.384 0 .576-.19.576-.57 0-.57-.192-.76-.576-.76z"/></g></svg>