<svg xmlns="http://www.w3.org/2000/svg" xmlns:xlink="http://www.w3.org/1999/xlink" width="633" height="171" viewBox="0 0 633 171"><defs><path id="a" d="M597 171c.338-21.694 15.622-35.731 36-36V36c-20.378-.269-35.662-18.134-36-36H36c-.338 17.866-16.895 35.731-36 36v99c19.105.269 35.662 14.306 36 36h561z"/></defs><g fill="none" fill-rule="evenodd"><use fill="#FFF" xlink:href="#a"/><use fill="#FCFAF9" xlink:href="#a"/><path stroke="#F6EDE4" d="M596.51 170.5c.552-21.087 15.309-35.496 35.99-35.99V36.49C613.111 35.958 597.136 19.2 596.513.5H36.487C35.85 18.746 19.073 35.932.5 36.49v98.02c19.896.517 35.428 15.324 35.99 35.99h560.02z"/></g></svg>