<svg xmlns="http://www.w3.org/2000/svg" viewBox="-200 27 16 13"><path d="M-194.783 39.5c5.661 0 8.756-4.616 8.756-8.619a7.3 7.3 0 0 0-.009-.392 6.173 6.173 0 0 0 1.536-1.569 6.21 6.21 0 0 1-1.768.477 3.046 3.046 0 0 0 1.354-1.676c-.595.348-1.253.6-1.954.735a3.098 3.098 0 0 0-2.247-.956c-1.699 0-3.077 1.355-3.077 3.029 0 .238.027.469.08.691a8.788 8.788 0 0 1-6.344-3.166 2.974 2.974 0 0 0-.417 1.522c0 1.051.543 1.979 1.37 2.521a3.089 3.089 0 0 1-1.394-.377v.038c0 1.468 1.061 2.692 2.469 2.97a3.15 3.15 0 0 1-1.39.05 3.073 3.073 0 0 0 2.875 2.104 6.24 6.24 0 0 1-4.556 1.255 8.792 8.792 0 0 0 4.716 1.363"/></svg>