<svg xmlns="http://www.w3.org/2000/svg" xmlns:xlink="http://www.w3.org/1999/xlink" width="40" height="43" viewBox="0 0 40 43"><defs><circle id="a" cx="20" cy="20" r="20"/></defs><g fill="none" fill-rule="evenodd" transform="translate(0 1.5)"><mask id="b" fill="#fff"><use xlink:href="#a"/></mask><path fill="#F9F9F9" d="M7.928 35.613a5.229 5.229 0 0 0-.934.664 19.407 19.407 0 0 0 12.556 4.586c4.75 0 9.3-1.498 12.683-4.32-.312-.264-.85-.701-1.224-.888l-6.232-3.115a2.377 2.377 0 0 1-1.312-2.126V27.97c.174-.2.374-.455.588-.758a14.274 14.274 0 0 0 1.937-3.903 1.957 1.957 0 0 0 1.388-1.862v-2.61c0-.573-.255-1.086-.652-1.445v-3.773s.775-5.87-7.175-5.87-7.175 5.87-7.175 5.87v3.773a1.947 1.947 0 0 0-.652 1.446v2.609c0 .687.362 1.292.902 1.642.652 2.838 2.36 4.88 2.36 4.88v2.385a2.375 2.375 0 0 1-1.24 2.085l-5.818 3.174z" mask="url(#b)"/></g></svg>