<svg width="30" height="24" viewBox="0 0 30 24" xmlns="http://www.w3.org/2000/svg"><title>1363AC17-6BE5-4D3D-A98F-186365A61EBC</title><path d="M18.688 0a1.758 1.758 0 0 0-.375.031L7.469 2.125c-1.028.2-1.73 1.223-1.532 2.25l3.5 18.063c.2 1.027 1.223 1.73 2.25 1.53l10.844-2.093c1.032-.2 1.73-1.219 1.532-2.25l-3.5-18.063C20.387.664 19.573.016 18.688 0zm-.094 2l3.5 17.906L11.406 22l-3.5-17.906L18.594 2zm6.125 2.531l-1.75.344 2.062 10.781 1.782-.344-2.094-10.78zm4.125 2l-1.782.344 1.063 5.406 1.75-.344-1.031-5.406zM4.969 8.344l-1.782.344 2.094 10.78 1.75-.343L4.97 8.344zm-3.094 3.375l-1.75.344 1.031 5.406 1.782-.344-1.063-5.406zM17.844 17l-3.625.688.375 1.968 3.625-.687L17.844 17z" fill="#FF3747" fill-rule="nonzero"/></svg>