<svg width="46" height="46" viewBox="0 0 46 46" xmlns="http://www.w3.org/2000/svg" xmlns:xlink="http://www.w3.org/1999/xlink"><title>764F328D-0ADB-4872-87C3-6C713C304710@2x</title><defs><path id="a" d="M0 0h1v3777H0z"/><mask id="b" x="0" y="0" width="1" height="3777" fill="#fff"><use xlink:href="#a"/></mask></defs><g fill="none" fill-rule="evenodd"><use mask="url(#b)" xlink:href="#a" opacity=".1" transform="translate(0 -819)" stroke="#000" stroke-dasharray="6,6" stroke-width="2"/><path d="M23 5c-5.912 0-10.733 4.848-10.733 10.792 0 3.71 1.886 6.997 4.737 8.937-5.48 2.354-9.337 7.828-9.337 14.188h3.066a12.31 12.31 0 0 1 8.32-11.677l3.564 3.583-2.684 8.094L23 42l3.067-3.083-2.684-8.094 3.564-3.583a12.31 12.31 0 0 1 8.32 11.677h3.066c0-6.36-3.857-11.834-9.337-14.188a10.811 10.811 0 0 0 4.737-8.937C33.733 9.848 28.912 5 23 5zm0 3.083c4.253 0 7.667 3.433 7.667 7.709 0 4.275-3.414 7.708-7.667 7.708s-7.667-3.433-7.667-7.708c0-4.276 3.414-7.709 7.667-7.709zm12.267 1.65v3.138c2.767.536 4.6 2.53 4.6 5.233 0 2.704-1.833 4.697-4.6 5.233v3.39c4.288.76 7.666 4.62 7.666 9.106H46c0-4.655-2.731-8.804-6.63-10.894 2.204-1.505 3.563-3.932 3.563-6.835 0-4.426-3.144-7.75-7.666-8.37zm-24.534.012c-4.462.633-7.666 4.011-7.666 8.36 0 2.902 1.36 5.329 3.563 6.834C2.731 27.03 0 31.18 0 35.833h3.067c0-4.486 3.378-8.346 7.666-9.105v-3.39c-2.767-.537-4.6-2.53-4.6-5.234 0-2.656 1.87-4.673 4.6-5.227V9.745z" fill="#FF3747" fill-rule="nonzero"/></g></svg>