<svg width="46" height="46" viewBox="0 0 46 46" xmlns="http://www.w3.org/2000/svg" xmlns:xlink="http://www.w3.org/1999/xlink"><title>43C3B1F7-5C4B-4F34-B86E-4A587226168A@2x</title><defs><path id="a" d="M0 0h1v3777H0z"/><mask id="b" x="0" y="0" width="1" height="3777" fill="#fff"><use xlink:href="#a"/></mask></defs><g fill="none" fill-rule="evenodd"><use mask="url(#b)" xlink:href="#a" opacity=".1" transform="translate(0 -621)" stroke="#000" stroke-dasharray="6,6" stroke-width="2"/><path d="M5 6v12.364h37V6H5zm3.083 3.09h30.834v6.183H8.083V9.09zm3.084 1.546a1.547 1.547 0 0 0 0 3.091 1.547 1.547 0 0 0 0-3.09zm4.625 0a1.547 1.547 0 0 0 0 3.091 1.547 1.547 0 0 0 0-3.09zm4.625 0a1.547 1.547 0 0 0 0 3.091 1.547 1.547 0 0 0 0-3.09zM5 19.91V40h37V19.91h-3.083v17H8.083v-17H5zm6.167 1.546v12.363H23.5V21.455H11.167zm15.416 0v3.09h9.25v-3.09h-9.25zm-12.333 3.09h6.167v6.182H14.25v-6.182zm12.333 1.546v3.09h9.25v-3.09h-9.25zm0 4.636v3.091h9.25v-3.09h-9.25z" fill="#FF3747" fill-rule="nonzero"/></g></svg>