<svg width="146" height="146" viewBox="0 0 146 146" xmlns="http://www.w3.org/2000/svg"><g fill="none" fill-rule="evenodd"><g><circle fill="#FCFAF9" cx="73" cy="73" r="71"/><path d="M15 113a2 2 0 0 1 0-4h116a2 2 0 0 1 0 4H15zM12 24v83c0 1.105-4-8.895-4-6V20h131v79c0 1.105-4 9.105-4 8V24H12z" fill="#B38F6C" fill-rule="nonzero"/><path d="M73 146c-40.317 0-73-32.683-73-73S32.683 0 73 0s73 32.683 73 73-32.683 73-73 73zm0-4c38.108 0 69-30.892 69-69 0-38.108-30.892-69-69-69C34.892 4 4 34.892 4 73c0 38.108 30.892 69 69 69z" fill="#ECDCCD" fill-rule="nonzero"/><path fill="#FCFAF9" d="M10 93V18h127v72"/><path fill="#DFCFC0" opacity=".5" d="M10 18h127v7H10z"/><path d="M12 20v73a2 2 0 1 1-4 0V16h131v74a2 2 0 0 1-4 0V20H12z" fill="#B38F6C" fill-rule="nonzero"/><g fill="#B38F6C" fill-rule="nonzero"><path d="M87.039 120.961H50.82c4.375 0 6.876-1.987 9.5-9.961h23.001c0 6.204 1.563 7.224 3.904 8.68-.131.342-.162.646-.186 1.281zM78.657 113H64.124a34.082 34.082 0 0 1-1.862 3.961H79.84A17.241 17.241 0 0 1 78.657 113zm5.75 3.961c3.196 4.717 8.65 4 5.79 4h-7.705a13.8 13.8 0 0 1-2.651-4h4.566z"/><path d="M42 121v2h57v-2H42zm-4-4h65v10H38v-10z"/></g><path fill="#EDE4DC" d="M24 91h95v3H24z"/><path fill="#EADDD1" d="M82 47h31v3H82zM82 55h24v3H82zM82 64h31v3H82zM82 72h24v3H82z"/><path fill="#DFCFC0" opacity=".5" d="M22 95h99v5H22z"/><path d="M24 94h95v-3H24v3zm-2 2v-7h99v7H22z" fill="#B38F6C" fill-rule="nonzero"/><path d="M38 53.052V47h-2v-1c1.03-.977 2.364-1.977 4-3 2.454-1.534 7.62-2 9-2s5.622.62 8 2 5 2.613 5 3v1h-2v5c0 1-.144.926 0 1.052.614.537 7 3.948 7 13.948s-6.617 21.617-7 22c-.383.383-5 2-11 2s-10.463-1.77-11-2c-.303-.13-7-12.764-7-22 0-6 2.333-10.65 7-13.948z" fill="#ECE3DB"/><path fill="#B38F6C" d="M38 67h23v2H38zM43 72h13v2H43z"/><path d="M38 53.052C33.333 56.351 31 61 31 67c0 9.236 6.697 21.87 7 22 .537.23 5 2 11 2s10.617-1.617 11-2c.383-.383 7-12 7-22s-6.386-13.411-7-13.948c-.144-.126 0-.052 0-1.052v-5h2v-1c0-.387-2.622-1.62-5-3s-6.62-2-8-2-6.546.466-9 2c-1.636 1.023-2.97 2.023-4 3v1h2v6.052zm-2-1.004V49h-2v-3.86l.624-.591c1.136-1.077 2.574-2.156 4.316-3.245C41.312 39.822 46.03 39 49 39c2.38 0 6.678.92 9.004 2.27.188.11.383.221.59.337.588.331 2.643 1.445 3.017 1.656.502.283.87.506 1.162.71.213.15.392.295.554.46.403.409.673.857.673 1.567v3h-2v3c.168.153.343.284.49.401a16.296 16.296 0 0 1 2.535 2.491C67.522 57.946 69 61.94 69 67c0 4.7-1.318 9.964-3.502 15.357-1.463 3.61-3.433 7.406-4.084 8.057C60.191 91.638 54.31 93 49 93c-2.819 0-5.518-.36-8.022-.97-1.625-.397-2.968-.85-3.766-1.192C34.962 89.874 29 74.8 29 67c0-6.27 2.355-11.312 7-14.952z" fill="#B38F6C" fill-rule="nonzero"/><path d="M38 48v5c4 .667 7.667 1 11 1h6l5-1v-5c-4 .667-7.667 1-11 1s-7-.333-11-1z" fill="#FFF"/><path d="M36.859 53.99l.282-1.98c4.623.66 8.578.99 11.859.99 3.281 0 7.236-.33 11.859-.99l.282 1.98C56.431 54.663 52.385 55 49 55s-7.431-.337-12.141-1.01zM36.859 48.99l.282-1.98c4.623.66 8.578.99 11.859.99 3.281 0 7.236-.33 11.859-.99l.282 1.98C56.431 49.663 52.385 50 49 50s-7.431-.337-12.141-1.01z" fill="#B38F6C" fill-rule="nonzero"/></g><g fill-rule="nonzero"><path d="M68.848 76.924c-1.164-.6-2.418-.814-3.702-.465-.827.226-1.462.787-2.07 1.354a3.185 3.185 0 0 0-.844.08l-.03-.019c-1.232.35-2.074 1.394-2.503 2.56-.051.138-.089.288-.13.426-2.565.983-4.151 3.518-3.995 6.23l-3.203.8c1.359-2.83-.224-6.043-.224-6.043l-.345-.752-.825.049s-3.957.1-5.712 3.02c-1.225 2.04-.746 4.355-.336 5.58l-2.365.59-1.244-1.836-.235 2.205-2.908.725.566 2.267 10.792-2.691 1.243 1.836.236-2.205 5.125-1.278a6.258 6.258 0 0 0 6.324 3.632c.043.042.092.082.135.124a3.793 3.793 0 0 0 2.79 1.005c1.219.69 2.606 1.006 3.978.631 2.022-.55 3.348-2.356 4.037-4.488 1.691-1.314 2.244-3.795 1.68-6.281-.458-2.019-1.646-3.503-3.182-4.258-.022-.034-.052-.052-.074-.086-.808-1.167-1.846-2.131-2.98-2.712z" fill="#FFF"/><path d="M68.848 76.924c-1.164-.6-2.418-.814-3.702-.465-.827.226-1.462.787-2.07 1.354a3.185 3.185 0 0 0-.844.08l-.03-.019c-1.232.35-2.074 1.394-2.503 2.56-.051.138-.089.288-.13.426-2.565.983-4.151 3.518-3.995 6.23l-3.203.8c1.359-2.83-.224-6.043-.224-6.043l-.345-.752-.825.049s-3.957.1-5.712 3.02c-1.225 2.04-.746 4.355-.336 5.58l-2.365.59-1.244-1.836-.235 2.205-2.908.725.566 2.267 10.792-2.691 1.243 1.836.236-2.205 5.125-1.278a6.258 6.258 0 0 0 6.324 3.632c.043.042.092.082.135.124a3.793 3.793 0 0 0 2.79 1.005c1.219.69 2.606 1.006 3.978.631 2.022-.55 3.348-2.356 4.037-4.488 1.691-1.314 2.244-3.795 1.68-6.281-.458-2.019-1.646-3.503-3.182-4.258-.022-.034-.052-.052-.074-.086-.808-1.167-1.846-2.131-2.98-2.712zm-.95 2.069c.735.389 1.456 1.063 2.099 2.015l.246.357.394.112c.734.2 1.81 1.328 2.197 3.037.442 1.942-.25 3.652-.945 4.083l-.388.228-.099.444c-.491 1.794-1.474 2.932-2.62 3.244-.781.211-1.616.066-2.475-.482l-.967-.623-.24.4c-.295.002-.572-.008-.955-.364-.498-.461-.996-1.28-1.224-2.286a5.034 5.034 0 0 1 .014-2.254l.142-.585-.4-.45c-.4-.476-.756-1.166-.942-1.99-.228-1.006-.159-1.976.094-2.667.253-.69.656-1.02 1.005-1.114.117-.03.218-.058.357-.037l.653.1.407-.469c.45-.52.934-.847 1.479-.996.683-.187 1.433-.093 2.168.297zM66.49 82.17l-1.06 2.044s.508.295.855.808c.347.512.628 1.047-.13 2.31l1.97 1.183c1.13-1.882.812-3.697.095-4.761a5.202 5.202 0 0 0-1.73-1.584zm-7.114 1.381c.031.27.065.553.128.832.216.957.71 1.73 1.212 2.446-.148.9-.251 1.839-.026 2.833.081.353.183.697.307 1.023a3.997 3.997 0 0 1-3.072-2.977l-.012-.05c-.38-1.6.235-3.179 1.463-4.107zm-9.129.13c.25.936.562 2.412-.057 3.443-.62 1.031-2.07 1.448-3.013 1.667-.25-.935-.562-2.411.057-3.443.62-1.031 2.07-1.448 3.013-1.667z" fill="#9C7B49"/></g></g></svg>