<svg xmlns="http://www.w3.org/2000/svg" width="272" height="74" viewBox="0 0 272 74"><g fill="#583500" fill-rule="evenodd"><path d="M47.913 26.358l1.013-.684c.668-.446 1.71-1.056 3.15-1.667 2.856-1.224 7.495-2.296 13.333-1.596 2.911.316 6.088 1.078 9.398 2.317 3.29 1.264 6.723 2.972 10.255 4.983 3.545 1.997 7.21 4.29 11.178 6.495 3.951 2.222 8.314 4.21 12.978 5.855 9.35 3.328 20.184 5.012 31.528 4.395a81.233 81.233 0 0 0 17.2-2.82c1.44-.389 2.876-.806 4.29-1.326 1.428-.47 2.853-.973 4.249-1.576 2.86-1.072 5.567-2.44 8.09-4.158 2.508-1.72 4.818-3.813 6.472-6.35 1.614-2.524 2.436-5.616 1.773-8.522-.567-3.021-2.53-5.479-5.117-7.187-2.59-1.7-5.66-2.704-8.802-3.195-3.164-.524-6.357-.463-9.59.027a61.37 61.37 0 0 0-9.545 2.112c-6.26 1.94-12.27 4.756-17.95 8.127-11.438 6.686-21.509 15.448-31.614 23.8-10.1 8.352-20.418 16.41-31.89 21.763C56.97 72.54 44.5 75.233 32.957 73.454c-11.577-1.68-21.382-8.32-27.233-16.55-5.87-8.281-7.308-18.582-3.935-26.23 1.578-3.807 3.935-6.936 6.472-9.388 2.564-2.428 5.271-4.313 7.97-5.47 5.371-2.463 10.236-2.328 13.243-1.678.755.195 1.448.284 2 .508.553.223 1.018.413 1.391.565l1.134.462-1.14-.444-1.397-.542c-.554-.213-1.25-.289-2.004-.471-3.007-.598-7.832-.646-13.1 1.874-2.647 1.188-5.287 3.097-7.77 5.527-2.46 2.454-4.719 5.566-6.194 9.3-.3.954-.68 1.907-.932 2.9-.17 1.011-.46 1.999-.547 3.07-.19 2.164-.155 4.302.227 6.534.721 4.418 2.532 8.898 5.413 12.897 5.755 7.944 15.38 14.32 26.592 15.835 11.232 1.62 23.355-1.122 34.495-6.42 11.227-5.275 21.44-13.283 31.483-21.64 10.06-8.364 20.17-17.236 31.777-24.06 5.782-3.407 11.927-6.27 18.356-8.237a63.032 63.032 0 0 1 9.835-2.145c3.29-.492 6.762-.556 10.072.011 3.321.531 6.597 1.595 9.452 3.481 1.389.975 2.745 2.077 3.727 3.514.286.327.483.715.7 1.089.205.384.456.73.599 1.164l.48 1.253c.117.403.184.788.278 1.181.773 3.427-.222 6.966-2.015 9.741-1.831 2.786-4.296 4.984-6.93 6.782-2.645 1.793-5.516 3.221-8.398 4.292a48.378 48.378 0 0 1-4.343 1.589c-1.445.516-2.913.93-4.383 1.31a82.49 82.49 0 0 1-17.522 2.707c-11.528.522-22.493-1.293-31.93-4.75-4.737-1.728-9.114-3.749-13.064-6.06-3.96-2.284-7.582-4.637-11.08-6.682-3.489-2.064-6.85-3.806-10.098-5.117-3.253-1.279-6.386-2.084-9.266-2.445-5.777-.79-10.402.195-13.267 1.37-1.445.585-2.492 1.174-3.17 1.61-.675.442-1.023.667-1.023.667"/><path d="M103 42.113s-.613.439-1.763 1.259a129.068 129.068 0 0 1-5.057 3.457c-4.433 2.843-10.881 6.855-19.298 10.28-8.385 3.432-18.769 6.227-30.146 6.806-5.668.263-11.689-.004-17.48-1.925a28.414 28.414 0 0 1-8.15-4.172c-2.529-1.872-4.676-4.132-6.466-6.688-3.534-5.124-5.49-11.284-5.63-17.406a29.97 29.97 0 0 1 1.152-8.969 32.794 32.794 0 0 1 3.57-8.091c3.024-4.963 7.234-8.86 11.72-11.604C29.97 2.283 34.797.81 39.358.267c4.545-.558 8.77-.183 12.378.586a41.597 41.597 0 0 1 9.03 3.066c2.405 1.11 4.134 2.28 5.316 3.049l1.755 1.273-1.809-1.19c-1.21-.721-2.99-1.783-5.406-2.811a40.946 40.946 0 0 0-9.014-2.723A38.935 38.935 0 0 0 39.49 1.28c-4.366.605-9.086 2.15-13.344 4.904-4.27 2.738-8.204 6.569-11.08 11.301-1.422 2.36-2.581 4.983-3.33 7.671a28.17 28.17 0 0 0-1.043 8.524c.17 5.785 2.071 11.611 5.424 16.413 1.652 2.405 3.707 4.578 5.99 6.292a26.724 26.724 0 0 0 7.682 4.003c5.483 1.863 11.318 2.179 16.876 1.958 5.581-.276 10.966-.969 15.983-2.05a93.448 93.448 0 0 0 13.865-4.134c8.387-3.234 14.981-6.915 19.483-9.632 2.246-1.371 4.009-2.458 5.188-3.238L103 42.113"/><path d="M223.858 26.358s-.348-.225-1.024-.668c-.677-.435-1.724-1.024-3.169-1.609-2.866-1.175-7.49-2.16-13.267-1.37-2.88.361-6.014 1.166-9.266 2.445-3.249 1.31-6.611 3.053-10.1 5.117-3.494 2.045-7.12 4.398-11.077 6.682-3.951 2.311-8.328 4.332-13.065 6.06-9.437 3.457-20.402 5.272-31.933 4.75a82.525 82.525 0 0 1-17.521-2.707c-1.469-.38-2.937-.794-4.383-1.31a48.308 48.308 0 0 1-4.34-1.59c-2.885-1.07-5.755-2.498-8.398-4.291-2.635-1.798-5.1-3.996-6.93-6.782-1.794-2.775-2.79-6.314-2.017-9.74.094-.394.161-.779.279-1.182l.48-1.253c.143-.435.394-.78.598-1.164.218-.374.417-.762.7-1.089.983-1.437 2.339-2.539 3.728-3.514 2.855-1.886 6.13-2.95 9.451-3.48 3.31-.568 6.783-.504 10.073-.012a62.92 62.92 0 0 1 9.833 2.145c6.43 1.967 12.576 4.83 18.358 8.237 11.606 6.824 21.715 15.696 31.777 24.06 10.04 8.357 20.256 16.365 31.483 21.64 11.14 5.298 23.262 8.04 34.495 6.42 11.212-1.515 20.837-7.89 26.592-15.835 2.88-4 4.692-8.48 5.412-12.897.383-2.234.42-4.37.228-6.536-.085-1.07-.378-2.057-.547-3.068-.251-.993-.632-1.946-.934-2.9-1.472-3.734-3.733-6.846-6.192-9.3-2.483-2.43-5.123-4.339-7.77-5.527-5.268-2.52-10.093-2.472-13.1-1.874-.755.182-1.45.258-2.005.471l-1.395.542c-.754.292-1.142.444-1.142.444l1.132-.462 1.393-.565c.55-.224 1.244-.313 2-.508 3.01-.65 7.872-.785 13.243 1.678 2.7 1.157 5.405 3.042 7.969 5.47 2.539 2.452 4.897 5.581 6.474 9.388 3.373 7.648 1.934 17.949-3.937 26.23-5.849 8.23-15.655 14.87-27.232 16.55-11.54 1.779-24.012-.915-35.352-6.303-11.471-5.353-21.791-13.411-31.891-21.762-10.106-8.353-20.179-17.115-31.615-23.801-5.68-3.371-11.689-6.188-17.95-8.127a61.37 61.37 0 0 0-9.544-2.112c-3.232-.49-6.427-.551-9.59-.027-3.142.49-6.214 1.495-8.804 3.195-2.586 1.708-4.547 4.166-5.116 7.187-.664 2.906.157 5.998 1.775 8.522 1.655 2.537 3.962 4.63 6.473 6.35 2.52 1.719 5.227 3.086 8.088 4.158 1.396.603 2.82 1.107 4.249 1.576 1.414.52 2.85.937 4.289 1.326a81.233 81.233 0 0 0 17.2 2.82c11.346.617 22.18-1.067 31.53-4.395 4.663-1.645 9.026-3.633 12.975-5.855 3.97-2.205 7.637-4.498 11.182-6.495 3.532-2.011 6.961-3.72 10.253-4.983 3.31-1.239 6.485-2 9.398-2.317 5.838-.7 10.477.372 13.332 1.596 1.441.61 2.481 1.221 3.15 1.667.671.451 1.014.684 1.014.684"/><path d="M169 42.113l1.817 1.18c1.177.78 2.94 1.866 5.187 3.237 4.503 2.717 11.096 6.396 19.484 9.632a93.452 93.452 0 0 0 13.866 4.134c5.017 1.081 10.402 1.774 15.981 2.05 5.558.221 11.394-.095 16.878-1.958a26.692 26.692 0 0 0 7.682-4.003c2.284-1.714 4.337-3.887 5.989-6.292 3.353-4.802 5.256-10.628 5.424-16.413a28.168 28.168 0 0 0-1.042-8.524 31.191 31.191 0 0 0-3.331-7.67c-2.874-4.733-6.808-8.564-11.079-11.302-4.258-2.753-8.98-4.299-13.346-4.904a38.936 38.936 0 0 0-12.118.237 40.96 40.96 0 0 0-9.012 2.723c-2.416 1.028-4.197 2.09-5.407 2.811-1.18.777-1.81 1.19-1.81 1.19s.612-.442 1.756-1.273c1.183-.77 2.912-1.94 5.317-3.05a41.565 41.565 0 0 1 9.03-3.065c3.605-.769 7.831-1.144 12.378-.586 4.56.543 9.385 2.016 13.905 4.793 4.487 2.744 8.696 6.64 11.72 11.604a32.73 32.73 0 0 1 3.57 8.091 30.034 30.034 0 0 1 1.151 8.969c-.139 6.122-2.095 12.282-5.63 17.406-1.79 2.556-3.935 4.816-6.467 6.688a28.415 28.415 0 0 1-8.15 4.172c-5.79 1.921-11.81 2.188-17.478 1.925-11.38-.579-21.761-3.374-30.146-6.806-8.42-3.425-14.868-7.437-19.3-10.28a129.07 129.07 0 0 1-5.056-3.457c-1.15-.82-1.763-1.259-1.763-1.259m-24.207-5.803c-.037-.042.852-.002 1.809-1.034.457-.508.879-1.282 1.016-2.263.144-.964.014-2.169-.75-3.16-1.47-2.038-5.068-2.88-8.222-1.361-1.603.71-3.114 1.867-4.607 3.21a97.595 97.595 0 0 0-4.582 4.427c-3.098 3.191-6.23 6.87-9.557 10.773-3.338 3.89-6.866 8.049-11.04 11.884-4.135 3.845-8.883 7.464-14.378 9.976-5.488 2.513-11.74 3.757-17.93 3.034-6.17-.716-12.162-3.866-15.94-8.77-1.908-2.421-3.31-5.221-4.037-8.173-.726-2.91-.75-6.052-.153-8.907.598-2.877 1.798-5.603 3.561-7.837a17.817 17.817 0 0 1 6.435-5.139c2.436-1.13 5.036-1.73 7.563-1.722 1.274.008 2.477.143 3.716.426.55.139 1.12.314 1.713.543.56.23 1.099.476 1.61.766 2.036 1.156 3.76 2.744 4.764 4.677 1.036 1.911 1.263 4.12.723 5.977-1.146 3.768-4.566 5.717-7.234 5.692-2.737.005-4.593-1.329-5.562-2.297-.504-.494-.801-.95-1.001-1.251l-.272-.475s.103.155.3.458c.217.287.537.72 1.062 1.176a7.684 7.684 0 0 0 5.457 1.933c2.49-.074 5.551-2.074 6.407-5.46.4-1.66.12-3.563-.865-5.205-.953-1.662-2.532-3.074-4.404-4.064-3.793-2.021-8.86-1.812-13.227.364-4.399 2.157-7.756 6.61-8.756 11.844-1.095 5.216.366 10.977 3.909 15.313 3.472 4.408 8.849 7.178 14.519 7.809 5.674.717 11.561-.379 16.743-2.703 5.23-2.33 9.836-5.762 13.907-9.48 8.121-7.493 14.559-15.832 21.037-22.089 1.612-1.574 3.201-3.038 4.782-4.35 1.59-1.31 3.239-2.47 5.002-3.161 3.518-1.497 7.396-.426 8.928 1.9.804 1.142.872 2.469.654 3.471-.209 1.026-.697 1.803-1.2 2.3-1.055 1.005-1.937.902-1.9.947"/><path d="M127.206 36.31c.038-.046-.845.057-1.9-.947-.503-.498-.991-1.275-1.2-2.3-.216-1.003-.15-2.33.654-3.472 1.533-2.326 5.41-3.397 8.928-1.9 1.763.69 3.412 1.852 5.002 3.16 1.581 1.313 3.172 2.777 4.782 4.351 6.479 6.257 12.916 14.596 21.038 22.089 4.07 3.718 8.678 7.15 13.906 9.48 5.184 2.324 11.07 3.42 16.744 2.703 5.67-.631 11.046-3.4 14.52-7.809 3.542-4.336 5.003-10.097 3.908-15.313-1.002-5.234-4.36-9.687-8.756-11.844-4.366-2.176-9.434-2.385-13.228-.364-1.871.99-3.45 2.402-4.403 4.064-.984 1.642-1.267 3.545-.865 5.207.856 3.384 3.92 5.384 6.407 5.458a7.687 7.687 0 0 0 5.457-1.933c.524-.456.847-.889 1.063-1.176.196-.303.299-.458.299-.458l-.272.475c-.202.3-.499.757-1.001 1.25-.968.969-2.825 2.303-5.562 2.298-2.668.025-6.088-1.924-7.234-5.692-.54-1.857-.313-4.066.722-5.977 1.005-1.933 2.727-3.521 4.763-4.677a14.21 14.21 0 0 1 1.612-.766 14.683 14.683 0 0 1 1.714-.543 16.798 16.798 0 0 1 3.714-.426c2.53-.009 5.126.592 7.563 1.722a17.832 17.832 0 0 1 6.436 5.139c1.763 2.234 2.963 4.96 3.56 7.837.599 2.855.574 5.997-.152 8.907-.726 2.952-2.13 5.752-4.037 8.173-3.778 4.904-9.77 8.054-15.938 8.77-6.194.723-12.446-.52-17.93-3.034-5.498-2.512-10.246-6.13-14.383-9.976-4.171-3.835-7.7-7.993-11.037-11.884-3.327-3.903-6.46-7.582-9.557-10.773a97.596 97.596 0 0 0-4.583-4.426c-1.493-1.344-3.004-2.501-4.607-3.211-3.154-1.519-6.75-.677-8.224 1.36-.764.992-.892 2.197-.75 3.161.14.981.56 1.755 1.018 2.263.957 1.032 1.848.992 1.809 1.033"/></g></svg>