<svg width="46" height="46" viewBox="0 0 46 46" xmlns="http://www.w3.org/2000/svg" xmlns:xlink="http://www.w3.org/1999/xlink"><title>8680DA8D-7F7D-4CDC-BB22-162B0C739C9F@2x</title><defs><path id="a" d="M0 0h1v3777H0z"/><mask id="b" x="0" y="0" width="1" height="3777" fill="#fff"><use xlink:href="#a"/></mask></defs><g fill="none" fill-rule="evenodd"><use mask="url(#b)" xlink:href="#a" opacity=".1" transform="translate(0 -555)" stroke="#000" stroke-dasharray="6,6" stroke-width="2"/><path d="M11.942 3l-1.057 1.106-6.78 6.779L3 11.942 14.058 23l-7.693 7.692-.096.481-1.682 8.462-.481 2.26 2.26-.482 8.46-1.682.482-.096L23 31.942l11.01 11.01 1.057-1.106 6.78-6.779 1.105-1.057L31.942 23l7.596-7.596a6.311 6.311 0 0 0 0-8.942 6.322 6.322 0 0 0-4.47-1.875 6.322 6.322 0 0 0-4.472 1.875L23 14.058 11.942 3zm0 4.375l2.981 3.029-2.26 2.26 2.212 2.211 2.26-2.26 3.653 3.654-4.567 4.568-8.894-8.895 4.615-4.567zm23.125.192c.8 0 1.61.36 2.308 1.058 1.388 1.388 1.388 3.18 0 4.567l-1.01 1.01-4.567-4.567 1.01-1.01c.697-.697 1.46-1.058 2.26-1.058zm-5.432 4.231l4.567 4.567-18.606 18.606a10.738 10.738 0 0 0-4.567-4.567l18.606-18.606zm.144 13.365l3.654 3.654-2.308 2.308 2.212 2.212 2.307-2.308 2.933 2.933-4.615 4.615-8.799-8.798 4.616-4.616zM9.058 32.856a7.643 7.643 0 0 1 4.086 4.086l-5.096 1.01 1.01-5.096z" fill="#FF3747" fill-rule="nonzero"/></g></svg>