<svg width="46" height="46" viewBox="0 0 46 46" xmlns="http://www.w3.org/2000/svg" xmlns:xlink="http://www.w3.org/1999/xlink"><title>FEEFA63D-351B-405D-8940-B3F679CA16B0@2x</title><defs><path id="a" d="M0 0h1v3777H0z"/><mask id="b" x="0" y="0" width="1" height="3777" fill="#fff"><use xlink:href="#a"/></mask></defs><g fill="none" fill-rule="evenodd"><use mask="url(#b)" xlink:href="#a" opacity=".1" transform="translate(0 -687)" stroke="#000" stroke-dasharray="6,6" stroke-width="2"/><path d="M15.688 2C13.117 2 11 4.08 11 6.607v33.786C11 42.919 13.117 45 15.688 45h15.624C33.883 45 36 42.92 36 40.393V6.607C36 4.081 33.883 2 31.312 2H15.688zm0 3.071h1.562c0 1.697 1.398 3.072 3.125 3.072h6.25c1.727 0 3.125-1.375 3.125-3.072h1.563c.882 0 1.562.668 1.562 1.536v33.786c0 .868-.68 1.536-1.563 1.536H15.688c-.882 0-1.562-.668-1.562-1.536V6.607c0-.868.68-1.536 1.563-1.536zm7.812 32.25c-.86 0-1.563.69-1.563 1.536 0 .846.702 1.536 1.563 1.536.86 0 1.563-.69 1.563-1.536 0-.846-.702-1.536-1.563-1.536z" fill="#FF3747" fill-rule="nonzero"/></g></svg>