<svg xmlns="http://www.w3.org/2000/svg" width="15" height="15" viewBox="0 0 15 15"><g fill="none" fill-rule="evenodd"><circle cx="7.5" cy="7.5" r="7" stroke="#B38F6C"/><path fill="#B38F6C" d="M6.355 6.823c.043 0 .079.014.108.04a.16.16 0 0 1 .042.118c0 .22-.183.95-.547 2.193a17.36 17.36 0 0 0-.34 1.256 2.357 2.357 0 0 0-.058.51c0 .206.048.36.143.46.096.1.218.15.365.15.122 0 .248-.022.378-.066.204-.066.524-.225.958-.477.434-.252.823-.488 1.166-.707l-.176-.31a9.046 9.046 0 0 1-.86.475.675.675 0 0 1-.247.082.172.172 0 0 1-.121-.053.193.193 0 0 1-.056-.147c0-.082.031-.252.092-.512.06-.26.22-.811.476-1.651s.412-1.386.469-1.636a2.18 2.18 0 0 0 .051-.464.43.43 0 0 0-.12-.322.39.39 0 0 0-.277-.117c-.09 0-.198.015-.32.047a3.972 3.972 0 0 0-.67.27 13.87 13.87 0 0 0-.92.55L5 7.106l.162.31c.621-.394 1.02-.592 1.193-.592M7.37 4.396c.13.12.31.182.54.182a.875.875 0 0 0 .646-.255c.17-.17.254-.394.254-.672a.604.604 0 0 0-.198-.472C8.48 3.06 8.305 3 8.087 3a.919.919 0 0 0-.647.244.816.816 0 0 0-.264.63c0 .227.065.4.195.522"/></g></svg>