<svg width="145" height="40" viewBox="0 0 145 40" xmlns="http://www.w3.org/2000/svg"><title>650D5C1F-B8AE-4D21-8BBF-3EFFD795B487</title><g fill="#333" fill-rule="evenodd"><path d="M13.604 37.833a5.312 5.312 0 0 0-3.766-1.557 5.318 5.318 0 0 0-5.078 3.72 7.945 7.945 0 0 1-3.435-11.145L15.462 4.448a7.944 7.944 0 0 1 13.748 0l14.136 24.403a7.944 7.944 0 0 1-3.206 11.03 5.319 5.319 0 0 0-5.04-3.605 5.312 5.312 0 0 0-3.767 1.557 2.654 2.654 0 0 0-1.552-.498 2.66 2.66 0 0 0-2.451 1.62c-1.783-1.782-3.156-4.193-3.884-6.651h5.826a2.439 2.439 0 0 0 2.168-3.557L24.372 15.05a2.439 2.439 0 0 0-4.348.026l-6.86 13.696a2.439 2.439 0 0 0 2.181 3.53h5.884c-.702 2.374-2.01 4.704-3.709 6.466a2.66 2.66 0 0 0-2.364-1.434c-.579 0-1.115.185-1.552.498zM55.651 22.702h2.145c.394 0 .616-.246.715-.491l1.208-2.653h7.371l1.208 2.653c.173.343.345.49.715.49h2.145c.37 0 .567-.319.419-.638l-7.593-16.53c-.074-.147-.173-.27-.42-.27h-.246c-.222 0-.345.123-.419.27l-7.667 16.53c-.148.32.05.639.419.639zm5.276-5.87l2.416-5.404h.074l2.465 5.404h-4.955zm15.461 5.403c0 .246.198.467.469.467h2.268a.484.484 0 0 0 .468-.467v-6.263h2.737l3.279 6.509c.049.098.172.22.394.22h2.589c.419 0 .591-.392.419-.712l-3.378-6.238c2.145-.86 3.649-2.702 3.649-4.962 0-2.922-2.416-5.28-5.374-5.28h-7.051a.467.467 0 0 0-.469.466v16.26zm3.23-8.891V8.456h4.018c1.307 0 2.441 1.08 2.441 2.383 0 1.375-1.134 2.505-2.44 2.505h-4.019zm15.757 8.891c0 .246.198.467.469.467h10.034a.467.467 0 0 0 .468-.467v-2.014a.467.467 0 0 0-.468-.467H98.58v-4.298h6.09a.467.467 0 0 0 .468-.467v-2.038a.484.484 0 0 0-.468-.467h-6.09V8.456h7.298a.467.467 0 0 0 .468-.467V5.975a.467.467 0 0 0-.468-.466H95.844a.467.467 0 0 0-.469.466v16.26zm20.41 0c0 .246.221.467.468.467h2.292a.484.484 0 0 0 .469-.467V8.456h3.772a.467.467 0 0 0 .468-.467V5.975a.467.467 0 0 0-.468-.466h-10.774a.467.467 0 0 0-.468.466V7.99c0 .246.197.467.468.467h3.772v13.78zm10.399-8.105c0 4.912 3.92 8.817 8.85 8.817s8.875-3.905 8.875-8.817a8.843 8.843 0 0 0-8.875-8.867c-4.93 0-8.85 3.955-8.85 8.867zm3.147 0c0-3.095 2.54-5.674 5.646-5.674s5.67 2.58 5.67 5.674c0 3.095-2.564 5.624-5.67 5.624-3.107 0-5.646-2.53-5.646-5.624z"/><path d="M55.446 34.31h1.389a2.549 2.549 0 0 0 2.568-2.542c0-1.395-1.148-2.525-2.568-2.525h-1.39v5.067zm-.39.382v-5.831h1.779c1.63 0 2.957 1.3 2.957 2.907 0 1.62-1.325 2.924-2.957 2.924h-1.78zm9.274-5.305h-.263l.263-.263v.263zm0 1.943v.263l-.263-.263h.263zm0 .67h-.263l.263-.263V32zm0 2.166v.263l-.263-.263h.263zm2.706.335v.016-.032.016zm-3.233-2.645v-.383h.382v.383h-.382zm2.848-.191v.016-.032.016zm.385-2.613v.016-.032.016zm-2.85.191h-.208a.209.209 0 0 0 .207-.207v.207zm0 5.067v.207a.209.209 0 0 0-.208-.207h.207zm6.567-5.2l-.017-.039.014.035.003.004zm9.907.277h-.263l.263-.263v.263zm0 1.943v.263l-.263-.263h.263zm0 .67h-.263l.263-.263V32zm0 2.166v.263l-.263-.263h.263zm2.707.335v.016-.032.016zm-.385-2.836v.016-.032.016zm.385-2.613v.016-.032.016zm-2.851.191h-.207a.209.209 0 0 0 .207-.207v.207zm0 5.067v.207a.209.209 0 0 0-.207-.207h.207zm7.89-.144v.263l-.264-.263h.264zm2.329.335v.016-.032.016zm-2.657-5.258a.24.24 0 0 0 .016 0h-.032.016zm.191 5.067v.207a.209.209 0 0 0-.207-.207h.207zm6.861-2.526c0 1.457 1.162 2.606 2.633 2.606 1.472 0 2.64-1.15 2.64-2.606a2.617 2.617 0 0 0-2.64-2.62 2.61 2.61 0 0 0-2.633 2.62zm-.381 0a2.993 2.993 0 0 1 3.014-3.003 3 3 0 0 1 3.022 3.003c0 1.668-1.342 2.988-3.022 2.988-1.68 0-3.014-1.318-3.014-2.988zm11.02-2.54v-.208a.209.209 0 0 1-.207.207h.207zm0 3.108h-.382v2.165c0-.108.085-.198.191-.206a.209.209 0 0 1 .191.206v-2.165zm-.382.383V28.86h1.843c1.074 0 1.956.867 1.956 1.925 0 1.07-.879 1.949-1.948 1.949h-1.85zm7.726 1.749v.003-.003zm1.162-5.516l-.003-.011a.224.224 0 0 0 .003.011zm.391-.012a.238.238 0 0 0 .004-.018l-.004.018zm1.407 5.592a.22.22 0 0 0-.003.01l.003-.01zm8.39-5.161h-.262l.263-.263v.263zm0 1.943v.263l-.262-.263h.263zm0 .67h-.262l.263-.263V32zm0 2.166v.263l-.262-.263h.263zm2.707.335v.016-.032.016zm-.385-2.836v.016-.032.016zm.385-2.613v.016-.032.016zm-2.85.191h-.207a.209.209 0 0 0 .207-.207v.207zm0 5.067v.207a.209.209 0 0 0-.207-.207h.207zm17.86-.137h-.016.032-.016zm-.19-5.068v-.382h.381v.382h-.382zm1.74-.191v.016-.032.016zm-3.084 0l.001-.016v.016zm1.199.335v-.263l.263.263h-.263zm.67 0h-.263l.264-.263v.263z" stroke="#333" stroke-width=".526"/></g></svg>