<svg xmlns="http://www.w3.org/2000/svg" width="19" height="19" viewBox="0 0 19 19"><path d="M1.98 1.35h4.284c.355 0 .642-.302.642-.675C6.906.303 6.62 0 6.264 0H.804C.447 0 0 .431 0 .804v5.742c0 .373.288.675.642.675.355 0 .643-.302.643-.675V2.829l5.153 5.333c.126.132.33.198.494.198a.67.67 0 0 0 .475-.198c.25-.264.26-.755.01-1.02L1.979 1.351zM18.514 0H13c-.358 0-.648.303-.648.677 0 .373.29.677.648.677h4.088l-5.5 5.803a.739.739 0 0 0 0 .989.65.65 0 0 0 .46.214c.165 0 .25-.058.377-.19l5.277-5.584v3.972c0 .374.29.677.648.677a.664.664 0 0 0 .649-.677V.805C19 .432 18.872 0 18.514 0M6.441 10.86l-5.155 5.46v-3.76c0-.382-.288-.692-.643-.692-.355 0-.643.31-.643.692v5.88c0 .38.449.559.803.559h5.464c.355 0 .643-.31.643-.692 0-.381-.288-.691-.643-.691h-4.33l5.494-5.845c.25-.27.21-.675-.04-.945-.251-.27-.699-.237-.95.033m11.913.996c-.356 0-.646.31-.646.693v4.022l-5.256-5.727a.57.57 0 0 0-.873 0c-.252.27-.232.644.02.914l5.54 5.857h-4.114c-.356 0-.646.31-.646.693 0 .382.29.693.646.693h5.49c.357 0 .485-.178.485-.561v-5.891c0-.383-.29-.693-.646-.693" fill="#FFF" fill-rule="evenodd"/></svg>