<svg xmlns="http://www.w3.org/2000/svg" width="604" height="464" viewBox="0 0 604 464"><path fill="#FFF" d="M302 228V.035C139.988.035.289 101.25.289 228c0 21.752 3.689 53.051 21.938 86.211 3.477 6.317 9.448 15.964 17.914 28.938L302 228zM302 227.965V0c162.012 0 301.711 97.258 301.711 227.965 0 21.752-3.688 53.051-21.938 86.211-3.477 6.318-9.448 15.964-17.914 28.938L302 227.965z"/><path fill="#FFF" d="M302.5 463.099c110.93 0 207.991-52.619 261.224-119.432 0-3.021-87.185-41.576-261.553-115.667C127.802 304.189 40.618 342.745 40.618 343.667 93.708 410.93 191.121 463.099 302.5 463.099z"/></svg>