<svg width="46" height="46" viewBox="0 0 46 46" xmlns="http://www.w3.org/2000/svg" xmlns:xlink="http://www.w3.org/1999/xlink"><title>9AA30BD4-0258-4104-A71C-D4336A63CF3D@2x</title><defs><path id="a" d="M0 0h1v3777H0z"/><mask id="b" x="0" y="0" width="1" height="3777" fill="#fff"><use xlink:href="#a"/></mask></defs><g fill="none" fill-rule="evenodd"><use mask="url(#b)" xlink:href="#a" opacity=".1" transform="translate(0 -885)" stroke="#000" stroke-dasharray="6,6" stroke-width="2"/><path d="M29.716 4l-2.883 1.182.92 2.273a7.791 7.791 0 0 0-2.206 2.17l-2.315-.975-1.213 2.876 2.334.98a7.729 7.729 0 0 0-.146 1.463c0 .494.055.975.146 1.445l-2.212.895 1.182 2.895 2.206-.902a7.953 7.953 0 0 0 2.036 2.054l-.994 2.352 2.877 1.206.974-2.31c.512.11 1.043.165 1.585.165a7.72 7.72 0 0 0 1.517-.146l.926 2.267 2.889-1.182-.939-2.304a7.891 7.891 0 0 0 1.993-1.98l2.243.938 1.212-2.876-2.206-.926a7.57 7.57 0 0 0 .165-1.59c0-.488-.049-.97-.134-1.433l2.352-.956-1.176-2.889-2.358.957a7.83 7.83 0 0 0-2.133-2.139l.932-2.206-2.876-1.213-.939 2.225a7.743 7.743 0 0 0-1.468-.147c-.457 0-.914.05-1.353.128L29.716 4zm2.29 5.29a4.654 4.654 0 0 1 4.68 4.68 4.65 4.65 0 0 1-4.68 4.68 4.654 4.654 0 0 1-4.68-4.68 4.658 4.658 0 0 1 4.68-4.68zM14.92 17.064v3.26c-1.414.238-2.706.823-3.827 1.621L8.76 19.618l-2.206 2.206 2.334 2.334c-.798 1.127-1.383 2.413-1.62 3.827H4v3.12h3.266c.238 1.414.823 2.7 1.621 3.827l-2.334 2.334 2.206 2.206 2.334-2.328c1.121.798 2.413 1.383 3.827 1.62v3.261h3.12v-3.26c1.414-.238 2.706-.823 3.827-1.621l2.334 2.328 2.206-2.206-2.334-2.334c.798-1.127 1.383-2.413 1.62-3.827h3.267v-3.12h-3.266c-.238-1.414-.823-2.7-1.621-3.827l2.334-2.334-2.206-2.206-2.334 2.328c-1.121-.798-2.413-1.383-3.827-1.62v-3.261h-3.12zm1.56 6.24a6.213 6.213 0 0 1 6.24 6.24 6.213 6.213 0 0 1-6.24 6.24 6.213 6.213 0 0 1-6.24-6.24 6.213 6.213 0 0 1 6.24-6.24z" fill="#FF3747" fill-rule="nonzero"/></g></svg>