<svg xmlns="http://www.w3.org/2000/svg" width="18" height="18" viewBox="0 0 18 18"><path fill="#FFF" fill-rule="evenodd" d="M11.654 9.927c.025-.207.026-.398.002-.608l-.327-1.003a2.648 2.648 0 0 0-.381-.514l.87-1.508c.512-.519 1.118-.921 1.674-1.102a2.64 2.64 0 0 1 3.322 1.693c.453 1.395-.338 3.005-1.693 3.446-.603.196-1.406.216-2.183.059l-1.284-.463zm-1.34 5.931c-.402-.552-.689-1.39-.757-2.241v-1.418c.197-.04.393-.103.571-.184l.853-.62a2.65 2.65 0 0 0 .34-.467l.983.355c.122.09 1.32.5 2.029 1.476a2.64 2.64 0 0 1-.584 3.683c-1.211.88-2.606.559-3.436-.584zm-1.277-4.66c-.872 0-1.582-.71-1.582-1.582 0-.873.71-1.582 1.582-1.582.872 0 1.582.71 1.582 1.582 0 .872-.71 1.582-1.582 1.582zm-1.276 4.66c-.858 1.182-2.337 1.436-3.51.584a2.64 2.64 0 0 1-.584-3.683c.698-.961 1.911-1.398 2.003-1.458l1.08-.377c.097.17.212.327.343.47l.853.62c.178.082.367.145.564.185v1.418c-.068.852-.348 1.689-.75 2.241zM1.186 6.885a2.64 2.64 0 0 1 3.322-1.693c.567.184 1.187.6 1.705 1.134L7.12 7.81a2.65 2.65 0 0 0-.374.506l-.327 1.003c-.024.212-.022.402.001.603l-1.317.46c-.79.166-1.61.148-2.223-.051C1.524 9.89.733 8.28 1.186 6.885zm10.241-3.194c0 .688-.269 1.536-.72 2.268a.525.525 0 0 0-.078.285l-.549.95a2.678 2.678 0 0 0-.523-.162H8.51c-.184.037-.36.094-.528.168L7.37 6.196a.525.525 0 0 0-.077-.237c-.45-.732-.72-1.58-.72-2.268 0-1.503 1.06-2.636 2.465-2.636 1.385 0 2.39 1.109 2.39 2.636zm1.74.498a4.376 4.376 0 0 0-.771.34 4.4 4.4 0 0 0 .086-.838C12.482 1.636 11.062 0 9.037 0 7.009 0 5.518 1.64 5.518 3.691c0 .27.03.551.086.838a4.377 4.377 0 0 0-.77-.34 3.695 3.695 0 0 0-4.65 2.37c-.639 1.964.447 4.15 2.369 4.775.255.083.532.142.823.177-.215.2-.404.41-.562.628a3.696 3.696 0 0 0 .817 5.156c1.645 1.196 3.783.835 4.983-.817.158-.217.3-.462.423-.728.123.266.265.51.423.728 1.202 1.655 3.267 2.01 4.91.817a3.696 3.696 0 0 0 .816-5.156 4.375 4.375 0 0 0-.562-.628 4.36 4.36 0 0 0 .823-.177c1.923-.625 3.008-2.811 2.37-4.775a3.695 3.695 0 0 0-4.65-2.37z" opacity=".6"/></svg>