<svg xmlns="http://www.w3.org/2000/svg" width="413" height="30" viewBox="0 0 413 30"><g fill="none" fill-rule="evenodd"><g fill="#583500"><path d="M324.698 23.506l.624-.522a18.13 18.13 0 0 1 1.88-1.343c1.686-1.047 4.282-2.332 7.63-3.13 3.337-.807 7.347-1.244 11.642-.992 4.284.224 8.793.983 13.238 1.903 4.436.968 8.828 2.051 12.986 2.801 4.151.723 8.081 1.326 11.426 1.172 1.668-.086 3.187-.352 4.46-.813 1.27-.462 2.286-1.112 3.008-1.766.712-.665 1.148-1.317 1.36-1.8.105-.242.18-.43.212-.565l.06-.198-.045.203c-.022.136-.08.331-.167.585-.179.501-.555 1.215-1.257 1.943-.705.72-1.71 1.452-3.007 2.014-1.292.562-2.859.934-4.578 1.071-1.719.147-3.594.094-5.54-.062a64.138 64.138 0 0 1-6.11-.759c-4.21-.708-8.633-1.738-13.056-2.653-4.41-.968-8.85-1.768-13.05-2.038-2.096-.127-4.13-.179-6.056-.069a36.5 36.5 0 0 0-5.38.68 34.187 34.187 0 0 0-4.422 1.227 24.794 24.794 0 0 0-3.238 1.447c-.863.478-1.52.887-1.956 1.193l-.664.471"/><path d="M324.7 23.19l.872-.547c.566-.36 1.395-.892 2.512-1.472a24.76 24.76 0 0 1 1.854-.944c.683-.33 1.42-.69 2.235-1.014a36.937 36.937 0 0 1 2.598-1.02c.92-.355 1.912-.648 2.95-.955 1.028-.328 2.131-.557 3.26-.852 1.143-.218 2.317-.507 3.545-.673a51.089 51.089 0 0 1 7.765-.699 53.584 53.584 0 0 1 8.333.468c2.824.365 5.665.968 8.436 1.76 5.538 1.608 10.863 3.737 16.004 5.154 2.571.703 5.077 1.296 7.49 1.636 2.408.347 4.724.468 6.84.353 4.246-.223 7.711-1.28 9.92-2.426a18.87 18.87 0 0 0 2.464-1.513l.803-.642-.763.693c-.522.421-1.294 1.047-2.394 1.668-2.182 1.241-5.644 2.557-9.986 2.894-4.333.365-9.439-.232-14.648-1.66-5.228-1.389-10.583-3.467-16.059-5.005a56.69 56.69 0 0 0-8.258-1.805 52.58 52.58 0 0 0-8.169-.536c-2.658.037-5.233.18-7.65.522-1.217.13-2.379.38-3.515.563-1.119.26-2.216.454-3.242.75-1.032.27-2.018.543-2.942.85-.936.272-1.805.583-2.618.888-.824.283-1.57.605-2.262.901-.699.282-1.327.568-1.884.85a39.112 39.112 0 0 0-2.587 1.322l-.904.49m-236.817.317s-.23-.164-.665-.47a22.63 22.63 0 0 0-1.955-1.194 24.916 24.916 0 0 0-3.238-1.447 34.187 34.187 0 0 0-4.422-1.227 36.514 36.514 0 0 0-5.38-.68c-1.926-.11-3.96-.058-6.055.07-4.2.27-8.64 1.07-13.052 2.037-4.422.915-8.845 1.945-13.054 2.653a64.138 64.138 0 0 1-6.11.76c-1.948.155-3.823.208-5.54.061-1.72-.137-3.287-.509-4.579-1.07-1.297-.563-2.302-1.296-3.007-2.015-.702-.728-1.078-1.442-1.257-1.943a4.027 4.027 0 0 1-.168-.585 42.353 42.353 0 0 0-.044-.203l.06.198a3.9 3.9 0 0 0 .212.565c.212.483.647 1.135 1.36 1.8.722.654 1.737 1.304 3.007 1.766 1.274.461 2.793.727 4.46.813 3.346.154 7.275-.449 11.427-1.172 4.158-.75 8.55-1.833 12.985-2.8 4.445-.92 8.955-1.68 13.238-1.904 4.295-.252 8.306.185 11.644.992 3.346.798 5.942 2.083 7.63 3.13a18.095 18.095 0 0 1 1.878 1.343l.625.522"/><path d="M87.881 23.19l-.905-.49a39.112 39.112 0 0 0-2.587-1.323 24.139 24.139 0 0 0-1.883-.85c-.693-.296-1.439-.618-2.262-.9a36.631 36.631 0 0 0-2.618-.89 48.44 48.44 0 0 0-2.943-.85c-1.025-.295-2.123-.489-3.24-.749-1.137-.183-2.3-.434-3.515-.563-2.418-.343-4.993-.485-7.65-.522a52.58 52.58 0 0 0-8.17.536 56.702 56.702 0 0 0-8.259 1.805c-5.475 1.538-10.83 3.616-16.058 5.005-5.209 1.428-10.315 2.025-14.649 1.66-4.342-.337-7.804-1.653-9.985-2.894-1.1-.62-1.872-1.247-2.395-1.668L0 19.804l.803.642c.544.39 1.355.946 2.465 1.513 2.207 1.145 5.672 2.203 9.92 2.426 2.114.115 4.431-.006 6.838-.353 2.413-.34 4.92-.933 7.49-1.636 5.142-1.417 10.467-3.546 16.005-5.155a57.935 57.935 0 0 1 8.436-1.759 53.584 53.584 0 0 1 8.333-.468c2.707.041 5.32.283 7.764.7 1.23.165 2.403.454 3.546.672 1.128.295 2.231.524 3.261.852 1.036.307 2.03.6 2.948.954.931.32 1.794.675 2.6 1.021.814.324 1.551.684 2.233 1.014.688.316 1.307.634 1.855.944 1.117.58 1.945 1.111 2.512 1.472l.872.546"/></g><g fill-rule="nonzero"><path fill="#333" d="M134.44 9c0-1.5-1.367-2.85-3.644-2.85-2.885 0-5.01 2.7-5.01 11.25 0 7.5 1.517 10.8 4.858 10.8 2.58 0 3.947-1.8 4.555-3.6.152-.45.455-.6.607-.6.152 0 .304.15.304.45 0 .45-.304 1.05-.608 1.65-.759 1.65-2.429 3.45-5.617 3.45-5.77 0-8.503-5.1-8.503-12.15 0-8.25 3.34-12.15 8.654-12.15 4.1 0 6.074 2.55 6.074 5.85 0 1.95-1.063 2.85-2.126 2.85s-1.974-.75-1.974-1.8c.152-1.8 2.43-1.8 2.43-3.15zm17.764 12.15c0 5.25-2.43 8.4-6.377 8.4-3.948 0-6.377-3.15-6.377-8.4s2.43-8.4 6.377-8.4c3.796 0 6.377 3 6.377 8.4zm-3.796 0c0-5.55-.91-7.65-2.581-7.65-1.67 0-2.581 2.1-2.581 7.65 0 5.55.91 7.65 2.581 7.65 1.67 0 2.581-2.1 2.581-7.65zm12.147 7.35h-.304c-.455 0-.759-.3-.759-.9V3h-4.859c-.303 0-.455.15-.455.45 0 .3.152.45.455.45h.304c.456 0 .76.3.76.9v22.95c0 .45-.304.9-.76.9h-.304c-.303 0-.455.15-.455.45 0 .3.152.45.455.45h5.922c.303 0 .455-.15.455-.45 0-.45-.152-.6-.455-.6zm16.853 0h-.303c-.456 0-.76-.3-.76-.9V13.05h-4.858c-.304 0-.456.15-.456.45 0 .3.152.45.456.45h.303c.456 0 .76.3.76.9v7.5c0 3.6-1.367 5.85-3.037 5.85-.911 0-1.67-.75-1.67-2.55v-12.6h-4.859c-.304 0-.455.15-.455.45 0 .3.151.45.455.45h.304c.455 0 .759.3.759.9V25.5c0 2.7 1.67 4.2 3.948 4.2 2.125 0 3.644-1.35 4.403-3.45v3.15h4.858c.304 0 .456-.15.456-.45.152-.3 0-.45-.304-.45zm24.9 0h-.303c-.455 0-.759-.3-.759-.9V16.95c0-2.7-1.518-4.2-3.948-4.2-2.125 0-3.644 1.35-4.403 3.45-.304-2.25-1.67-3.45-3.796-3.45-2.277 0-3.795 1.5-4.555 3.9v-3.6h-4.706c-.304 0-.456.15-.456.45 0 .3.152.45.456.45h.303c.456 0 .76.3.76.9v12.9c0 .45-.304.75-.76.75h-.303c-.304 0-.456.15-.456.45 0 .3.152.45.456.45h5.921c.304 0 .456-.15.456-.45 0-.3-.152-.45-.456-.45h-.304c-.455 0-.759-.3-.759-.9v-7.35c0-3.6 1.367-5.85 2.885-5.85.911 0 1.67.75 1.67 2.55V27.6c0 .6-.303.9-.759.9h-.304c-.303 0-.455.15-.455.45 0 .3.152.45.455.45h5.77c.304 0 .455-.15.455-.45 0-.3-.151-.45-.455-.45h-.304c-.455 0-.759-.3-.759-.9v-7.05c0-3.75 1.215-6.15 2.885-6.15.911 0 1.67.75 1.67 2.55V27.6c0 .6-.304.9-.759.9h-.304c-.303 0-.455.15-.455.45 0 .3.152.45.455.45h5.922c.303 0 .455-.15.455-.45 0-.3-.303-.45-.455-.45zm16.702-7.35c0 6-2.58 8.4-5.314 8.4-2.125 0-3.492-1.2-4.1-3.6v3.3h-4.857c-.304 0-.455-.15-.455-.45 0-.3.151-.45.455-.45h.304c.455 0 .759-.3.759-.9V4.65c0-.45-.304-.9-.76-.9h-.303c-.304 0-.455-.15-.455-.45 0-.3.151-.45.455-.45h4.859V16.2c.607-2.25 1.974-3.6 4.1-3.6 2.732.15 5.313 2.55 5.313 8.55zm-3.795 0c0-5.25-.911-7.2-2.43-7.2-1.974 0-3.036 3.75-3.036 7.2 0 3.6 1.062 7.2 3.036 7.2 1.367 0 2.43-1.95 2.43-7.2zm20.8 7.65c0 .3-.151.45-.455.45h-4.707v-3.3c-.607 2.25-1.974 3.6-4.1 3.6-2.732 0-5.313-2.4-5.313-8.4s2.58-8.4 5.314-8.4c2.125 0 3.492 1.2 4.1 3.6v-3.3h3.643V27.6c0 .45.304.9.76.9h.303c.152 0 .456.15.456.3zm-5.314-7.65c0-3.6-1.062-7.2-3.036-7.2-1.518 0-2.43 1.95-2.43 7.2s.912 7.2 2.43 7.2c1.974 0 3.036-3.75 3.036-7.2zm15.943-8.4c-1.822 0-3.492 1.05-4.251 4.35v-4.05h-4.404c-.303 0-.455.15-.455.45 0 .3.152.45.455.45h.304c.456 0 .76.3.76.9v12.9c0 .45-.304.9-.76.9h-.304c-.303 0-.455.15-.455.45 0 .3.152.45.455.45h6.833c.304 0 .455-.15.455-.45 0-.3-.151-.45-.455-.45h-1.215c-.455 0-.759-.3-.759-.9v-6.3c0-4.95 1.367-7.35 3.189-7.35.91 0 1.366.45 1.366 1.05 0 .9-1.67 1.2-1.67 2.7 0 1.05.76 1.8 1.822 1.8 1.67 0 2.43-1.5 2.43-3 .151-2.1-.912-3.9-3.341-3.9zm8.806-4.2c1.063 0 2.126-.9 2.126-2.1-.152-1.05-1.063-1.95-2.126-1.95-1.214 0-2.125.9-2.125 2.1 0 1.05.91 1.95 2.125 1.95zm2.885 19.95h-.304c-.455 0-.759-.3-.759-.9V13.05h-4.858c-.304 0-.456.15-.456.45 0 .3.152.45.456.45h.303c.456 0 .76.3.76.9v12.9c0 .45-.304.9-.76.9h-.303c-.304 0-.456.15-.456.45 0 .3.152.45.456.45h5.921c.304 0 .456-.15.456-.45 0-.45-.152-.6-.456-.6zm16.853 0h-.303c-.456 0-.76-.3-.76-.9V13.05h-4.858c-.304 0-.456.15-.456.45 0 .3.152.45.456.45h.304c.455 0 .759.3.759.9v7.5c0 3.6-1.367 5.85-3.037 5.85-.91 0-1.67-.75-1.67-2.55v-12.6h-4.859c-.303 0-.455.15-.455.45 0 .3.152.45.455.45h.304c.456 0 .76.3.76.9V25.5c0 2.7 1.67 4.2 3.947 4.2 2.125 0 3.644-1.35 4.403-3.45v3.15h4.859c.303 0 .455-.15.455-.45.152-.3 0-.45-.304-.45zm24.901 0h-.304c-.455 0-.759-.3-.759-.9V16.95c0-2.7-1.518-4.2-3.947-4.2-2.126 0-3.644 1.35-4.404 3.45-.303-2.25-1.67-3.45-3.795-3.45-2.278 0-3.796 1.5-4.555 3.9v-3.6h-4.707c-.304 0-.456.15-.456.45 0 .3.152.45.456.45h.303c.456 0 .76.3.76.9v12.9c0 .45-.304.75-.76.75h-.303c-.304 0-.456.15-.456.45 0 .3.152.45.456.45h5.921c.304 0 .456-.15.456-.45 0-.3-.152-.45-.456-.45h-.303c-.456 0-.76-.3-.76-.9v-7.35c0-3.6 1.367-5.85 2.885-5.85.911 0 1.67.75 1.67 2.55V27.6c0 .6-.303.9-.759.9h-.303c-.304 0-.456.15-.456.45 0 .3.152.45.456.45h5.77c.303 0 .455-.15.455-.45 0-.3-.152-.45-.456-.45h-.303c-.456 0-.76-.3-.76-.9v-7.05c0-3.75 1.215-6.15 2.885-6.15.911 0 1.67.75 1.67 2.55V27.6c0 .6-.303.9-.759.9h-.303c-.304 0-.456.15-.456.45 0 .3.152.45.456.45h5.921c.304 0 .456-.15.456-.45 0-.3-.152-.45-.456-.45z"/><path fill="#907050" d="M113.79 4.5c1.215-1.05 1.367-2.25.76-3.75 0-.15-.152-.3-.152-.3.152 0 .152.15.303.3 4.707 3.9 3.948 6.45 3.644 7.8-.151.75-.91 1.35-1.67 1.35-1.063 0-1.822-.9-1.822-1.8 0-.3.152-.6.304-.9.304-.45.455-1.05.607-1.65-.303.45-.607.9-.91 1.05-1.367 1.2-1.671 1.65-1.215 3.15-2.885-1.65-1.215-4.05.151-5.25zm5.01 24h-.303c-.455 0-.759-.3-.759-.9V13.05h-4.859c-.303 0-.455.15-.455.45 0 .3.152.45.455.45h.304c.456 0 .76.3.76.9v12.9c0 .45-.304.9-.76.9h-.304c-.303 0-.455.15-.455.45 0 .3.152.45.455.45h5.922c.304 0 .455-.15.455-.45 0-.45-.151-.6-.455-.6z"/></g></g></svg>