<svg xmlns="http://www.w3.org/2000/svg" width="23" height="29" viewBox="0 0 23 29">
    <g fill="#1D1D1B" fill-rule="nonzero" opacity=".2">
        <path d="M21.412 8.704c0-1.482-1.299-2.815-3.464-2.815-2.742 0-4.762 2.667-4.762 11.111 0 7.407 1.443 10.667 4.618 10.667 2.454 0 3.753-1.778 4.33-3.556.144-.444.433-.592.577-.592.145 0 .289.148.289.444 0 .444-.289 1.037-.577 1.63-.722 1.63-2.31 3.407-5.34 3.407C11.597 29 9 23.963 9 17c0-8.148 3.175-12 8.227-12C21.124 5 23 7.519 23 10.778c0 1.926-1.01 2.815-2.02 2.815s-1.877-.741-1.877-1.778c.144-1.778 2.31-1.778 2.31-3.111zM1.689 4.036C2.869 2.99 3.017 1.794 2.427.3c0-.15-.148-.299-.148-.299.148 0 .148.15.295.299 4.574 3.887 3.836 6.428 3.54 7.773-.147.748-.884 1.346-1.622 1.346-1.033 0-1.77-.897-1.77-1.794 0-.3.147-.598.295-.897.295-.449.442-1.047.59-1.645-.295.449-.59.897-.885 1.047-1.328 1.196-1.623 1.644-1.18 3.139-2.804-1.644-1.18-4.036.147-5.232zm4.868 23.918h-.295c-.442 0-.737-.3-.737-.897v-14.5H.804c-.295 0-.443.15-.443.448 0 .3.148.449.443.449h.295c.442 0 .738.299.738.897v12.855c0 .449-.296.897-.738.897H.804c-.295 0-.443.15-.443.449 0 .299.148.448.443.448h5.753c.295 0 .443-.15.443-.448 0-.449-.148-.598-.443-.598z"/>
    </g>
</svg>
