<svg xmlns="http://www.w3.org/2000/svg" width="146" height="157" viewBox="0 0 146 157">
    <g fill="none" fill-rule="evenodd">
        <circle cx="73" cy="83" r="71" fill="#FCFAF9"/>
        <path fill="#FCFAF9" d="M18 38v-8l7-5h28L92 2l14 23h13l4 4 1 12H30z"/>
        <path fill="#FCFAF9" d="M18 39h115v84l-11 11H23l-5-7z"/>
        <path fill="#B38F6C" fill-rule="nonzero" d="M16 30c0-2.667 4-2.667 4 0v9l-2-2h115a2 2 0 0 1 2 2v34a2 2 0 0 1-4 0V41H20v88c0 1.105-4-2.895-4-4V30zm10 106c-1.105 0-4.105-4-3-4h100c1.105 0-1.895 4-3 4H26zm109-19c0 1.105-4 7.105-4 6V97a2 2 0 0 1 2-2c1.105 0 2-1.105 2 0v22z"/>
        <path fill="#DFCFC0" d="M105 91l5 6h21v3h-21l-5-4z"/>
        <path fill="#B38F6C" fill-rule="nonzero" d="M136 91.184V78.816L132.16 75h-21.32L107 78.816v12.368L110.84 95h21.32l3.84-3.816zM132.571 97H110.43a1 1 0 0 1-.705-.29l-4.429-4.4a1 1 0 0 1-.295-.71V78.4a1 1 0 0 1 .295-.71l4.429-4.4a1 1 0 0 1 .705-.29h22.142a1 1 0 0 1 .705.29l4.429 4.4a1 1 0 0 1 .295.71v13.2a1 1 0 0 1-.295.71l-4.429 4.4a1 1 0 0 1-.705.29z"/>
        <path fill="#B38F6C" fill-rule="nonzero" d="M121 84.5a2.499 2.499 0 1 0-2.5 2.5c1.38 0 2.5-1.12 2.5-2.5zm2 0a4.499 4.499 0 1 1-9 0 4.499 4.499 0 1 1 9 0zM120 125a1 1 0 1 1 0 2h-1a1 1 0 1 1 0-2h1zm-8 0a1 1 0 1 1 0 2h-1a1 1 0 1 1 0-2h1zm-8 0a1 1 0 1 1 0 2h-1a1 1 0 1 1 0-2h1zm-8 0a1 1 0 1 1 0 2h-1a1 1 0 1 1 0-2h1zm-8 0a1 1 0 1 1 0 2h-1a1 1 0 1 1 0-2h1zm-8 0a1 1 0 1 1 0 2h-1a1 1 0 1 1 0-2h1zm-8 0a1 1 0 1 1 0 2h-1a1 1 0 1 1 0-2h1zm-8 0a1 1 0 1 1 0 2h-1a1 1 0 1 1 0-2h1zm-8 0a1 1 0 1 1 0 2h-1a1 1 0 1 1 0-2h1zm-8 0a1 1 0 1 1 0 2h-1a1 1 0 1 1 0-2h1zm-8 0a1 1 0 1 1 0 2h-1a1 1 0 1 1 0-2h1zm-8 0a1 1 0 1 1 0 2h-1a1 1 0 1 1 0-2h1z"/>
        <path fill="#ECDCCD" fill-rule="nonzero" d="M73 157c-40.317 0-73-32.683-73-73s32.683-73 73-73 73 32.683 73 73-32.683 73-73 73zm0-4c38.108 0 69-30.892 69-69 0-38.108-30.892-69-69-69C34.892 15 4 45.892 4 84c0 38.108 30.892 69 69 69z"/>
        <path fill="#FCFAF9" d="M126 39l-1-14h-20L90 3 53 25l-30-1-4 4v11z"/>
        <path fill="#B38F6C" fill-rule="nonzero" d="M49.012 40.725l-2.024-3.45 36.04-21.132.909 2.045c1.254 2.824 4.912 3.82 8.277 2.043l1.503-.793 13.878 18.356-3.19 2.412-11.903-15.743c-4.16 1.478-8.582.393-11.072-2.747l-32.418 19.01zM107 27a2 2 0 0 1 0-4h18a2 2 0 0 1 2 2v14a2 2 0 0 1-2 2h-9.958a2 2 0 0 1 0-4H123V27h-16z"/>
        <path fill="#B38F6C" fill-rule="nonzero" d="M92.973 3.448l-5.34-1.205 2.105 3.107 3.235-1.902zM89.738 5.35L111.169 37H116L90.946 0 28 37h7.894L89.738 5.35zm0 0l3.235-1.902-5.34-1.205 2.105 3.107zm0 0L111.169 37H116L90.946 0 28 37h7.894L89.738 5.35z"/>
        <path fill="#B38F6C" fill-rule="nonzero" d="M16 30c0-2.667 4-2.667 4 0l-2 7h115a2 2 0 0 1 2 2v36c0 1.105-.895 0-2 0a2 2 0 0 1-2-2V41H20v73a2 2 0 0 1-4 0V30z"/>
        <path fill="#B38F6C" fill-rule="nonzero" d="M53 22a2 2 0 1 1 0 4H26.675C22.222 26 20 27.437 20 30.429 20 34.052 20 37 26.675 37h4.526a2 2 0 1 1 0 4h-4.526C20.785 41 16 36.272 16 30.429 16 24.77 20.283 22 26.675 22H53z"/>
        <path fill="#EDE4DC" d="M20 41h111v4H20z"/>
    </g>
</svg>
