<?xml version="1.0" encoding="UTF-8"?>
<svg width="46px" height="46px" viewBox="0 0 46 46" version="1.1" xmlns="http://www.w3.org/2000/svg" xmlns:xlink="http://www.w3.org/1999/xlink">
    <!-- Generator: sketchtool 52.2 (67145) - http://www.bohemiancoding.com/sketch -->
    <title>6F47640F-BF49-4BA5-B6EE-D02CC05A4BB4@2x</title>
    <desc>Created with sketchtool.</desc>
    <defs>
        <polygon id="path-1" points="0 0 1 0 1 3777 0 3777"></polygon>
        <mask id="mask-2" maskContentUnits="userSpaceOnUse" maskUnits="objectBoundingBox" x="0" y="0" width="1" height="3777" fill="white">
            <use xlink:href="#path-1"></use>
        </mask>
    </defs>
    <g id="Landing-v.4" stroke="none" stroke-width="1" fill="none" fill-rule="evenodd">
        <g id="Landing---Mobile" transform="translate(-30.000000, -753.000000)">
            <g id="Lines" opacity="0.100000001" transform="translate(30.000000, 0.000000)" stroke="#000000" stroke-dasharray="6,6" stroke-width="2">
                <use id="Rectangle-2" mask="url(#mask-2)" xlink:href="#path-1"></use>
            </g>
            <g id="ECommerce-icon" transform="translate(30.000000, 753.000000)" fill="#FF3747" fill-rule="nonzero">
                <path d="M10.1464851,5 L6.09123961,15.8579105 L9.378628,15.8579105 L12.2820878,8.08333333 L34.7239122,8.08333333 L37.627372,15.8579105 L40.9027619,15.8579105 L36.8475164,5 L10.1464851,5 Z M2,17.3333333 L2,26.5833333 L3.93164139,26.5833333 L8.53878425,42 L38.4672158,42 L43.0743586,26.5833333 L45,26.5833333 L45,17.3333333 L2,17.3333333 Z M5.07142857,20.4166667 L41.9285714,20.4166667 L41.9285714,23.5 L40.7827842,23.5 L36.1756414,38.9166667 L10.8183601,38.9166667 L6.21121729,23.5 L5.07142857,23.5 L5.07142857,20.4166667 Z M15.8214286,25.0416667 L15.8214286,35.8333333 L18.8928571,35.8333333 L18.8928571,25.0416667 L15.8214286,25.0416667 Z M21.9642857,25.0416667 L21.9642857,35.8333333 L25.0357143,35.8333333 L25.0357143,25.0416667 L21.9642857,25.0416667 Z M28.1071429,25.0416667 L28.1071429,35.8333333 L31.1785714,35.8333333 L31.1785714,25.0416667 L28.1071429,25.0416667 Z" id="Shape"></path>
            </g>
        </g>
    </g>
</svg>