<?xml version="1.0" encoding="UTF-8"?>
<svg width="46px" height="46px" viewBox="0 0 46 46" version="1.1" xmlns="http://www.w3.org/2000/svg" xmlns:xlink="http://www.w3.org/1999/xlink">
    <!-- Generator: sketchtool 52.2 (67145) - http://www.bohemiancoding.com/sketch -->
    <title>764F328D-0ADB-4872-87C3-6C713C304710@2x</title>
    <desc>Created with sketchtool.</desc>
    <defs>
        <polygon id="path-1" points="0 0 1 0 1 3777 0 3777"></polygon>
        <mask id="mask-2" maskContentUnits="userSpaceOnUse" maskUnits="objectBoundingBox" x="0" y="0" width="1" height="3777" fill="white">
            <use xlink:href="#path-1"></use>
        </mask>
    </defs>
    <g id="Landing-v.4" stroke="none" stroke-width="1" fill="none" fill-rule="evenodd">
        <g id="Landing---Mobile" transform="translate(-30.000000, -819.000000)">
            <g id="Lines" opacity="0.100000001" transform="translate(30.000000, 0.000000)" stroke="#000000" stroke-dasharray="6,6" stroke-width="2">
                <use id="Rectangle-2" mask="url(#mask-2)" xlink:href="#path-1"></use>
            </g>
            <g id="CRM-icon" transform="translate(30.000000, 819.000000)" fill="#FF3747" fill-rule="nonzero">
                <path d="M23,5 C17.0882809,5 12.2666667,9.84781863 12.2666667,15.7916667 C12.2666667,19.5013021 14.1533858,22.7893888 17.0044275,24.7285156 C11.5239583,27.083171 7.66666667,32.5572917 7.66666667,38.9166667 L10.7333333,38.9166667 C10.7333333,33.478678 14.2132809,28.8898116 19.0528642,27.2397457 L22.6166667,30.8229167 L19.9333333,38.9166667 L23,42 L26.0666667,38.9166667 L23.3833333,30.8229167 L26.9471358,27.2397457 C31.7867191,28.8898116 35.2666667,33.478678 35.2666667,38.9166667 L38.3333333,38.9166667 C38.3333333,32.5572917 34.4760417,27.083171 28.9955725,24.7285156 C31.8466142,22.7893888 33.7333333,19.5013021 33.7333333,15.7916667 C33.7333333,9.84781863 28.9117191,5 23,5 Z M23,8.08333333 C27.2526049,8.08333333 30.6666667,11.5159513 30.6666667,15.7916667 C30.6666667,20.0673836 27.2526049,23.5 23,23.5 C18.7473966,23.5 15.3333333,20.0673836 15.3333333,15.7916667 C15.3333333,11.5159513 18.7473966,8.08333333 23,8.08333333 Z M35.2666667,9.73339921 L35.2666667,12.8709314 C38.0338549,13.406901 39.8666667,15.4002282 39.8666667,18.1041667 C39.8666667,20.8081051 38.0338549,22.8014323 35.2666667,23.337402 L35.2666667,26.7278646 C39.5552083,27.4866544 42.9333333,31.3468428 42.9333333,35.8333333 L46,35.8333333 C46,31.178223 43.26875,27.0289721 39.3695309,24.9392907 C41.5736975,23.4337561 42.9333333,21.0068367 42.9333333,18.1041667 C42.9333333,13.6778967 39.7888025,10.353678 35.2666667,9.73339921 Z M10.7333333,9.74544271 C6.27109413,10.3777665 3.06666667,13.7561857 3.06666667,18.1041667 C3.06666667,21.0068367 4.42630247,23.4337561 6.63046913,24.9392907 C2.73125,27.0289721 0,31.178223 0,35.8333333 L3.06666667,35.8333333 C3.06666667,31.3468428 6.44479167,27.4866544 10.7333333,26.7278646 L10.7333333,23.337402 C7.9661466,22.8014323 6.13333333,20.8081051 6.13333333,18.1041667 C6.13333333,15.4484053 8.00208333,13.4309896 10.7333333,12.8769531 L10.7333333,9.74544271 Z" id="Shape"></path>
            </g>
        </g>
    </g>
</svg>