<?xml version="1.0" encoding="UTF-8"?>
<svg width="46px" height="46px" viewBox="0 0 46 46" version="1.1" xmlns="http://www.w3.org/2000/svg" xmlns:xlink="http://www.w3.org/1999/xlink">
    <!-- Generator: sketchtool 52.2 (67145) - http://www.bohemiancoding.com/sketch -->
    <title>8680DA8D-7F7D-4CDC-BB22-162B0C739C9F@2x</title>
    <desc>Created with sketchtool.</desc>
    <defs>
        <polygon id="path-1" points="0 0 1 0 1 3777 0 3777"></polygon>
        <mask id="mask-2" maskContentUnits="userSpaceOnUse" maskUnits="objectBoundingBox" x="0" y="0" width="1" height="3777" fill="white">
            <use xlink:href="#path-1"></use>
        </mask>
    </defs>
    <g id="Landing-v.4" stroke="none" stroke-width="1" fill="none" fill-rule="evenodd">
        <g id="Landing---Mobile" transform="translate(-30.000000, -555.000000)">
            <g id="Lines" opacity="0.100000001" transform="translate(30.000000, 0.000000)" stroke="#000000" stroke-dasharray="6,6" stroke-width="2">
                <use id="Rectangle-2" mask="url(#mask-2)" xlink:href="#path-1"></use>
            </g>
            <g id="Design-icon" transform="translate(30.000000, 555.000000)" fill="#FF3747" fill-rule="nonzero">
                <path d="M11.9423077,3 L10.8846154,4.10576923 L4.10576923,10.8846154 L3,11.9423077 L14.0576923,23 L6.36538462,30.6923077 L6.26923077,31.1730769 L4.58653846,39.6346154 L4.10576923,41.8942308 L6.36538462,41.4134615 L14.8269231,39.7307692 L15.3076923,39.6346154 L23,31.9423077 L34.0096154,42.9519231 L35.0673077,41.8461538 L41.8461538,35.0673077 L42.9519231,34.0096154 L31.9423077,23 L39.5384615,15.4038462 C42.0144231,12.9278846 42.0144231,8.9375 39.5384615,6.46153846 C38.3004815,5.22355846 36.6838938,4.58653846 35.0673077,4.58653846 C33.4507215,4.58653846 31.8341354,5.22355846 30.5961538,6.46153846 L23,14.0576923 L11.9423077,3 Z M11.9423077,7.375 L14.9230769,10.4038462 L12.6634615,12.6634615 L14.875,14.875 L17.1346154,12.6153846 L20.7884615,16.2692308 L16.2211538,20.8365385 L7.32692308,11.9423077 L11.9423077,7.375 Z M35.0673077,7.56730769 C35.8665862,7.56730769 36.6778846,7.92788462 37.375,8.625 C38.7632215,10.0132215 38.7632215,11.8040862 37.375,13.1923077 L36.3653846,14.2019231 L31.7980769,9.63461538 L32.8076923,8.625 C33.5048077,7.92788462 34.2680292,7.56730769 35.0673077,7.56730769 Z M29.6346154,11.7980769 L34.2019231,16.3653846 L15.5961538,34.9711538 C14.5805292,33.0180292 12.9819708,31.4194708 11.0288462,30.4038462 L29.6346154,11.7980769 Z M29.7788462,25.1634615 L33.4326923,28.8173077 L31.125,31.125 L33.3365385,33.3365385 L35.6442308,31.0288462 L38.5769231,33.9615385 L33.9615385,38.5769231 L25.1634615,29.7788462 L29.7788462,25.1634615 Z M9.05769231,32.8557692 C10.9026446,33.6310092 12.3689908,35.0973554 13.1442308,36.9423077 L8.04807692,37.9519231 L9.05769231,32.8557692 Z" id="Shape"></path>
            </g>
        </g>
    </g>
</svg>