<svg width="146px" height="146px" viewBox="0 0 146 146" version="1.1" xmlns="http://www.w3.org/2000/svg" xmlns:xlink="http://www.w3.org/1999/xlink">
    <g id="Index" stroke="none" stroke-width="1" fill="none" fill-rule="evenodd">
        <g id="iCoumbarium-index" transform="translate(-1354.000000, -2029.000000)">
            <g id="Group-36" transform="translate(1354.000000, 2029.000000)">
                <g id="Group-35">
                    <circle id="Mask" fill="#FCFAF9" cx="73" cy="73" r="71"></circle>
                    <path d="M15,113 C13.8954305,113 13,112.104569 13,111 C13,109.895431 13.8954305,109 15,109 L131,109 C132.104569,109 133,109.895431 133,111 C133,112.104569 132.104569,113 131,113 L15,113 Z" id="Path-6" fill="#B38F6C" fill-rule="nonzero"></path>
                    <path d="M12,24 L12,107 C12,108.104569 8,98.1045695 8,101 L8,20 L139,20 L139,99 C139,100.104569 135,108.104569 135,107 L135,24 L12,24 Z" id="Rectangle-7" fill="#B38F6C" fill-rule="nonzero"></path>
                    <path d="M73,146 C32.6832133,146 0,113.316787 0,73 C0,32.6832133 32.6832133,0 73,0 C113.316787,0 146,32.6832133 146,73 C146,113.316787 113.316787,146 73,146 Z M73,142 C111.107648,142 142,111.107648 142,73 C142,34.8923523 111.107648,4 73,4 C34.8923523,4 4,34.8923523 4,73 C4,111.107648 34.8923523,142 73,142 Z" id="Mask" fill="#ECDCCD" fill-rule="nonzero"></path>
                    <polyline id="Rectangle-7" fill="#FCFAF9" points="10 93 10 18 137 18 137 90"></polyline>
                    <rect id="Rectangle-12" fill="#DFCFC0" opacity="0.5" x="10" y="18" width="127" height="7"></rect>
                    <path d="M12,20 L12,93 C12,94.1045695 11.1045695,95 10,95 C8.8954305,95 8,94.1045695 8,93 L8,16 L139,16 L139,90 C139,91.1045695 138.104569,92 137,92 C135.895431,92 135,91.1045695 135,90 L135,20 L12,20 Z" id="Rectangle-7" fill="#B38F6C" fill-rule="nonzero"></path>
                    <g id="Group-2" transform="translate(22.000000, 39.000000)">
                        <g id="Group-14" transform="translate(16.000000, 72.000000)" fill="#B38F6C" fill-rule="nonzero">
                            <g id="Page-1">
                                <path d="M49.0385668,9.96098792 L12.8203348,9.96098792 C17.1954539,9.96098792 19.6955492,7.97399195 22.3206207,0 L45.3211923,0 C45.3211923,6.20430561 46.8842024,7.22385291 49.2245798,8.67941606 C49.0938995,9.0218398 49.0627882,9.32616279 49.0385668,9.96098792 Z M40.6566509,2 L26.1240815,2 C25.5484369,3.44288013 24.928238,4.76501438 24.2616293,5.96098792 L41.8407978,5.96098792 C41.3130024,4.76573368 40.9133253,3.44519297 40.6566509,2 Z M46.4068197,5.96098792 C49.6031037,10.6783275 55.0574808,9.96098792 52.1964067,9.96098792 L44.4921628,9.96098792 C43.4163457,8.83720024 42.5218953,7.50341262 41.8407978,5.96098792 L46.4068197,5.96098792 Z" id="Stroke-9"></path>
                                <path d="M4,10 L4,12 L61,12 L61,10 L4,10 Z M0,6 L65,6 L65,16 L0,16 L0,6 Z" id="Rectangle-8"></path>
                            </g>
                        </g>
                        <rect id="Rectangle-9" fill="#EDE4DC" x="2" y="52" width="95" height="3"></rect>
                        <rect id="Rectangle-6" fill="#EADDD1" x="60" y="8" width="31" height="3"></rect>
                        <rect id="Rectangle-6" fill="#EADDD1" x="60" y="16" width="24" height="3"></rect>
                        <rect id="Rectangle-6" fill="#EADDD1" x="60" y="25" width="31" height="3"></rect>
                        <rect id="Rectangle-6" fill="#EADDD1" x="60" y="33" width="24" height="3"></rect>
                        <rect id="Rectangle-12" fill="#DFCFC0" opacity="0.5" x="0" y="56" width="99" height="5"></rect>
                        <path d="M2,55 L97,55 L97,52 L2,52 L2,55 Z M0,57 L0,50 L99,50 L99,57 L0,57 Z" id="Rectangle-9" fill="#B38F6C" fill-rule="nonzero"></path>
                        <g id="Group-7" transform="translate(7.000000, 0.000000)">
                            <path d="M9.00020427,14.0521626 L9.00020427,10 L9.00020427,8 L7,8 L7,7 C8.03049466,6.0226075 9.363828,5.0226075 11,4 C13.454258,2.46608875 18.6194799,2 20,2 C21.3805201,2 25.6224376,2.61947987 28,4 C30.3775624,5.38052013 33,6.61269306 33,7 C33,7.25820463 33,7.59153796 33,8 L31,8 L31,10 C31,11.3333333 31,12.3333333 31,13 C31,14 30.856115,13.9262633 31,14.0521626 C31.6135645,14.5890316 38,18 38,28 C38,38 31.3834778,49.6165222 31,50 C30.6165222,50.3834778 26,52 20,52 C14,52 9.53707321,50.2300867 9.00020427,50 C8.69718343,49.8701339 2,37.2363982 2,28 C2,22 4.33340142,17.3507209 9.00020427,14.0521626 Z" id="Mask" fill="#ECE3DB"></path>
                            <rect id="Rectangle-16" fill="#B38F6C" x="9" y="28" width="23" height="2"></rect>
                            <rect id="Rectangle-16" fill="#B38F6C" x="14" y="33" width="13" height="2"></rect>
                            <path d="M9.00020427,14.0521626 C4.33340142,17.3507209 2,22 2,28 C2,37.2363982 8.69718343,49.8701339 9.00020427,50 C9.53707321,50.2300867 14,52 20,52 C26,52 30.6165222,50.3834778 31,50 C31.3834778,49.6165222 38,38 38,28 C38,18 31.6135645,14.5890316 31,14.0521626 C30.856115,13.9262633 31,14 31,13 L31,8 L33,8 L33,7 C33,6.61269306 30.3775624,5.38052013 28,4 C25.6224376,2.61947987 21.3805201,2 20,2 C18.6194799,2 13.454258,2.46608875 11,4 C9.363828,5.0226075 8.03049466,6.0226075 7,7 L7,8 L9.00020427,8 L9.00020427,14.0521626 Z M7.00020427,13.0481943 L7.00020427,10 L5,10 L5,6.14042337 L5.62366908,5.54889242 C6.75956598,4.47152915 8.19759131,3.39301015 9.94000212,2.30400339 C12.3120035,0.821502528 17.0307167,4.4408921e-16 20,0 C22.3792981,0 26.6783712,0.919899643 29.004271,2.27042211 C29.1916658,2.37923199 29.3873913,2.49099426 29.5937719,2.60716588 C30.1821207,2.9383474 32.23688,4.05195459 32.6113399,4.26310974 C33.1131969,4.54610319 33.4818911,4.7693293 33.7727335,4.97367175 C33.9859879,5.12350172 34.1653776,5.26800504 34.3271504,5.43243655 C34.7299089,5.8418144 35,6.28969055 35,7 L35,10 L33,10 L33,13 C33.168378,13.1527426 33.3426436,13.2841581 33.4907917,13.4013126 C34.3842819,14.1078781 35.2289216,14.9184574 36.0248404,15.8920891 C38.5215639,18.9462819 40,22.9397583 40,28 C40,32.69993 38.6818773,37.9642708 36.4975091,43.3570473 C35.0354887,46.966489 33.0651865,50.7632406 32.4142136,51.4142136 C31.1905596,52.6378675 25.3087287,54 20,54 C17.1810014,54 14.4815156,53.6398148 11.9776915,53.0293661 C10.3530004,52.6332557 9.00959959,52.1799617 8.21236567,51.8382901 C5.96199241,50.8738444 2.22044605e-16,35.798994 0,28 C0,21.7295007 2.35493667,16.6881537 7.00020427,13.0481943 Z" id="Mask" fill="#B38F6C" fill-rule="nonzero"></path>
                        </g>
                        <path d="M16,9 L16,14 C20,14.6666667 23.6666667,15 27,15 C30.3333333,15 32.3333333,15 33,15 L38,14 L38,10 L38,9 C34,9.66666667 30.3333333,10 27,10 C23.6666667,10 20,9.66666667 16,9 Z" id="Path-5" fill="#FFFFFF"></path>
                        <path d="M14.8585786,14.9899495 L15.1414214,13.0100505 C19.7644431,13.6704822 23.7186569,14 27,14 C30.2813431,14 34.2355569,13.6704822 38.8585786,13.0100505 L39.1414214,14.9899495 C34.4311098,15.6628511 30.3853236,16 27,16 C23.6146764,16 19.5688902,15.6628511 14.8585786,14.9899495 Z" id="Path-3" fill="#B38F6C" fill-rule="nonzero"></path>
                        <path d="M14.8585786,9.98994949 L15.1414214,8.01005051 C19.7644431,8.67048218 23.7186569,9 27,9 C30.2813431,9 34.2355569,8.67048218 38.8585786,8.01005051 L39.1414214,9.98994949 C34.4311098,10.6628511 30.3853236,11 27,11 C23.6146764,11 19.5688902,10.6628511 14.8585786,9.98994949 Z" id="Path-3" fill="#B38F6C" fill-rule="nonzero"></path>
                    </g>
                </g>
                <g id="icons8-роза-(1)" transform="translate(57.357990, 87.943314) rotate(31.000000) translate(-57.357990, -87.943314) translate(41.857990, 72.443314)" fill-rule="nonzero">
                    <path d="M19.6730064,0.136720968 C18.3666102,0.222018586 17.1814262,0.684420192 16.2611132,1.64513692 C15.6685212,2.26466548 15.4126295,3.07274545 15.1836733,3.87184619 C14.9457389,4.0110158 14.7033143,4.16814275 14.5012946,4.3746515 L14.4653799,4.3746515 C13.5899597,5.30843281 13.4058973,6.63727543 13.6393426,7.85837406 C13.6662792,8.00203272 13.711172,8.15018043 13.7470866,8.28935005 C12.0546083,10.4532092 12.0007363,13.4431046 13.5315986,15.6877712 L11.1971454,18.0222244 C10.905339,14.8976485 7.89299615,12.9582566 7.89299615,12.9582566 L7.2106175,12.4913659 L6.52823886,12.9582566 C6.52823886,12.9582566 3.18817496,15.0817109 3.18817496,18.4891151 C3.18817496,20.8684622 4.79086662,22.6058333 5.77403088,23.4453389 L4.05012693,25.1692429 L2.03890566,24.2354616 L2.97268697,26.2466828 L0.8537217,28.3656481 L2.50579632,30.0177227 L10.3711081,22.152411 L12.3823293,23.0861923 L11.448548,21.074971 L15.1836733,17.3398458 C17.3924252,18.8482617 20.3194704,18.8123471 22.4743504,17.1961871 C22.5327114,17.2096554 22.5955626,17.2186335 22.6539237,17.2321018 C23.6595343,17.4431007 24.7100389,17.2365908 25.5630116,16.6574671 C26.9636836,16.6215525 28.3149726,16.1771082 29.2981368,15.1490512 C30.7481917,13.6361462 30.9547005,11.4049479 30.4474061,9.22313135 C31.2195714,7.22537837 30.4159805,4.81460673 28.6516728,2.97397955 C27.2195753,1.47903188 25.4373103,0.819099613 23.7313637,0.962758275 C23.695449,0.944800943 23.6595343,0.944800943 23.6236197,0.92684361 C22.3306917,0.343230869 20.943488,0.0514233497 19.6730064,0.136720968 Z" id="Shape" fill="#FFFFFF"></path>
                    <path d="M19.6730064,0.136720968 C18.3666102,0.222018586 17.1814262,0.684420192 16.2611132,1.64513692 C15.6685212,2.26466548 15.4126295,3.07274545 15.1836733,3.87184619 C14.9457389,4.0110158 14.7033143,4.16814275 14.5012946,4.3746515 L14.4653799,4.3746515 C13.5899597,5.30843281 13.4058973,6.63727543 13.6393426,7.85837406 C13.6662792,8.00203272 13.711172,8.15018043 13.7470866,8.28935005 C12.0546083,10.4532092 12.0007363,13.4431046 13.5315986,15.6877712 L11.1971454,18.0222244 C10.905339,14.8976485 7.89299615,12.9582566 7.89299615,12.9582566 L7.2106175,12.4913659 L6.52823886,12.9582566 C6.52823886,12.9582566 3.18817496,15.0817109 3.18817496,18.4891151 C3.18817496,20.8684622 4.79086662,22.6058333 5.77403088,23.4453389 L4.05012693,25.1692429 L2.03890566,24.2354616 L2.97268697,26.2466828 L0.8537217,28.3656481 L2.50579632,30.0177227 L10.3711081,22.152411 L12.3823293,23.0861923 L11.448548,21.074971 L15.1836733,17.3398458 C17.3924252,18.8482617 20.3194704,18.8123471 22.4743504,17.1961871 C22.5327114,17.2096554 22.5955626,17.2186335 22.6539237,17.2321018 C23.6595343,17.4431007 24.7100389,17.2365908 25.5630116,16.6574671 C26.9636836,16.6215525 28.3149726,16.1771082 29.2981368,15.1490512 C30.7481917,13.6361462 30.9547005,11.4049479 30.4474061,9.22313135 C31.2195714,7.22537837 30.4159805,4.81460673 28.6516728,2.97397955 C27.2195753,1.47903188 25.4373103,0.819099613 23.7313637,0.962758275 C23.695449,0.944800943 23.6595343,0.944800943 23.6236197,0.92684361 C22.3306917,0.343230869 20.943488,0.0514233497 19.6730064,0.136720968 Z M19.9244091,2.3993449 C20.7549355,2.35445214 21.7201424,2.56096089 22.7616677,3.04580888 L23.156729,3.22538221 L23.5517903,3.11763821 C24.2835519,2.91112946 25.7874788,3.32414811 26.9995982,4.5901395 C28.3778238,6.02672612 28.6651411,7.84939597 28.2925262,8.57666737 L28.0770382,8.97172869 L28.2206969,9.40270468 C28.7235022,11.1939489 28.4676105,12.6754283 27.6460622,13.5328912 C27.0848958,14.1165051 26.2947732,14.4217798 25.2756943,14.3948432 L24.126425,14.3589285 L24.126425,14.8258192 C23.8750223,14.9784571 23.6325989,15.1131365 23.1208143,15.0053925 C22.456393,14.8662229 21.6079093,14.4217798 20.8941051,13.6765499 C20.3104923,13.0660006 19.9468555,12.3701536 19.7448358,11.7371579 L19.5652625,11.1625233 L18.9906278,10.98295 C18.4025249,10.7809303 17.7425938,10.3724006 17.1589799,9.76185134 C16.4451756,9.0166226 16.0052215,8.15018043 15.8660519,7.42739807 C15.7268823,6.70461572 15.9019666,6.21527869 16.1533692,5.95489679 C16.2386668,5.86959917 16.3104962,5.79328079 16.4406865,5.73940879 L17.0512359,5.48800613 L17.1589799,4.87745682 C17.2757031,4.19956722 17.5226156,3.66982648 17.9131878,3.26129687 C18.4025249,2.74951346 19.0938828,2.4442388 19.9244091,2.3993449 Z M20.3553851,5.84715279 L20.4990438,8.14569139 C20.4990438,8.14569139 21.0871467,8.13671329 21.6483131,8.39709404 C22.2094794,8.65747594 22.725753,8.97172869 22.725753,10.44423 L25.0242916,10.44423 C25.0242916,8.24894634 23.8166613,6.85725247 22.6539237,6.31404344 C21.4911861,5.77083441 20.3553851,5.84715279 20.3553851,5.84715279 Z M14.9681853,10.6956326 C15.1342903,10.9111206 15.3093746,11.1355879 15.5069052,11.3420966 C16.1847948,12.0514118 17.0063431,12.4599403 17.8054438,12.8145979 C18.1421441,13.6630816 18.5372054,14.5205445 19.2420305,15.2567952 C19.4934331,15.5171771 19.7583041,15.7596005 20.0321531,15.9750885 C18.6225031,16.4734047 17.0018529,16.1411935 15.8660519,15.0053925 L15.8301372,14.9694778 C14.6808679,13.7932731 14.3935506,12.1232412 14.9681853,10.6956326 Z M7.2106175,15.5081978 C7.90646444,16.1815984 8.93452145,17.2859738 8.93452145,18.4891151 C8.93452145,19.6922564 7.90646444,20.7966329 7.2106175,21.4700323 C6.51477057,20.7966329 5.48671356,19.6922564 5.48671356,18.4891151 C5.48671356,17.2859738 6.51477057,16.1815984 7.2106175,15.5081978 Z" id="Shape" fill="#9C7B49"></path>
                </g>
            </g>
        </g>
    </g>
</svg>
