<?xml version="1.0" encoding="utf-8"?>
<!-- Generator: Adobe Illustrator 16.0.0, SVG Export Plug-In . SVG Version: 6.00 Build 0)  -->
<!DOCTYPE svg PUBLIC "-//W3C//DTD SVG 1.1//EN" "http://www.w3.org/Graphics/SVG/1.1/DTD/svg11.dtd">
<svg version="1.1" id="Layer_1" xmlns="http://www.w3.org/2000/svg" xmlns:xlink="http://www.w3.org/1999/xlink" x="0px" y="0px" width="100%" height="100%" viewBox="-200 27 16 13" enable-background="new -200 27 16 13" xml:space="preserve">
<path d="M-194.783,39.5c5.661,0,8.756-4.616,8.756-8.619c0-0.131-0.002-0.262-0.009-0.392c0.603-0.427,1.124-0.962,1.536-1.569
	c-0.551,0.241-1.145,0.404-1.768,0.477c0.636-0.375,1.123-0.967,1.354-1.676c-0.595,0.348-1.253,0.6-1.954,0.735
	c-0.562-0.588-1.36-0.956-2.247-0.956c-1.699,0-3.077,1.355-3.077,3.029c0,0.238,0.027,0.469,0.08,0.691
	c-2.558-0.128-4.826-1.332-6.344-3.166c-0.265,0.447-0.417,0.967-0.417,1.522c0,1.051,0.543,1.979,1.37,2.521
	c-0.505-0.015-0.979-0.15-1.394-0.377c0,0.012,0,0.024,0,0.038c0,1.468,1.061,2.692,2.469,2.97
	c-0.259,0.069-0.531,0.106-0.812,0.106c-0.198,0-0.391-0.021-0.578-0.056c0.392,1.205,1.528,2.08,2.875,2.104
	c-1.053,0.812-2.38,1.298-3.822,1.298c-0.248,0-0.493-0.016-0.734-0.043C-198.138,38.998-196.521,39.5-194.783,39.5"/>
</svg>
