<?xml version="1.0" encoding="UTF-8"?>
<svg width="30px" height="24px" viewBox="0 0 30 24" version="1.1" xmlns="http://www.w3.org/2000/svg" xmlns:xlink="http://www.w3.org/1999/xlink">
    <!-- Generator: sketchtool 52.2 (67145) - http://www.bohemiancoding.com/sketch -->
    <title>1363AC17-6BE5-4D3D-A98F-186365A61EBC</title>
    <desc>Created with sketchtool.</desc>
    <g id="Landing-v.4" stroke="none" stroke-width="1" fill="none" fill-rule="evenodd">
        <g id="Landing---Desktop-HD" transform="translate(-619.000000, -3130.000000)" fill="#FF3747" fill-rule="nonzero">
            <g id="icons8-shake_phone" transform="translate(619.000000, 3127.000000)">
                <path d="M18.6875,3 C18.5625,2.996094 18.441406,3.007813 18.3125,3.03125 L7.46875,5.125 C6.441406,5.324219 5.738281,6.347656 5.9375,7.375 L9.4375,25.4375 C9.636719,26.464844 10.660156,27.167969 11.6875,26.96875 L22.53125,24.875 C23.5625,24.675781 24.261719,23.65625 24.0625,22.625 L20.5625,4.5625 C20.386719,3.664063 19.574219,3.015625 18.6875,3 Z M18.59375,5 L22.09375,22.90625 L11.40625,25 L7.90625,7.09375 L18.59375,5 Z M24.71875,7.53125 L22.96875,7.875 L25.03125,18.65625 L26.8125,18.3125 L24.71875,7.53125 Z M28.84375,9.53125 L27.0625,9.875 L28.125,15.28125 L29.875,14.9375 L28.84375,9.53125 Z M4.96875,11.34375 L3.1875,11.6875 L5.28125,22.46875 L7.03125,22.125 L4.96875,11.34375 Z M1.875,14.71875 L0.125,15.0625 L1.15625,20.46875 L2.9375,20.125 L1.875,14.71875 Z M17.84375,20 L14.21875,20.6875 L14.59375,22.65625 L18.21875,21.96875 L17.84375,20 Z" id="Shape"></path>
            </g>
        </g>
    </g>
</svg>