<svg xmlns="http://www.w3.org/2000/svg" width="146" height="153" viewBox="0 0 146 153">
    <g fill="none" fill-rule="evenodd">
        <circle cx="71" cy="80" r="71" fill="#FCFAF9"/>
        <path fill="#ECDCCD" fill-rule="nonzero" d="M73 153c-40.317 0-73-32.683-73-73S32.683 7 73 7s73 32.683 73 73-32.683 73-73 73zm0-4c38.108 0 69-30.892 69-69 0-38.108-30.892-69-69-69C34.892 11 4 41.892 4 80c0 38.108 30.892 69 69 69z"/>
        <path fill="#FCFAF9" d="M8 116.182L9 41 72.316 3 138 39.818v76.364l-61.705 34.952L73 153z"/>
        <path fill="#FCFAF9" d="M138 39.818L73.195 3 8 39.818 18 46"/>
        <path fill="#ECE3DB" d="M33 53l10 6 63-35-9-7z"/>
        <path fill="#EDE4DC" d="M10 40l4 3L78 6l-6-2zM10 44l4 2v72l-4-3z"/>
        <path fill="#ECE3DB" d="M31 56l9 5v72l-9-5z"/>
        <path fill="#B38F6C" fill-rule="nonzero" d="M10 44.554v63.721H6V37.81l67 36.618 67-36.618v70.465h-4v-63.72L73 78.985 10 44.554zm120.41 74.46l1.917 3.51-55.369 30.231-1.916-3.51 55.368-30.231zm-57.49 30.21l-1.84 3.552-56-29 1.84-3.552 56 29z"/>
        <path fill="#B38F6C" fill-rule="nonzero" d="M8.983 41.56L6 38.08 73.198.7 140 38.08l-2.988 3.478L73.192 5.3z"/>
        <path fill="#B38F6C" fill-rule="nonzero" d="M99 18l-1-2-68 37v76h2V55z"/>
        <path fill="#B38F6C" fill-rule="nonzero" d="M109 23l-1-2-68 37v76h2V60z"/>
        <path fill="#B38F6C" d="M72 77h4v73h-4z"/>
        <path fill="#E1D1C3" d="M118.294 84.068v3.005l3.49-1.823v14.022l2.726-1.423V83.827l3.49-1.822V79l-9.706 5.068zm-4.21 9.396c-.91-.101-1.485-.198-1.728-.293-.243-.093-.42-.229-.531-.409-.112-.178-.169-.426-.169-.745 0-.513.138-.999.415-1.462.275-.462.67-.827 1.186-1.097a4.83 4.83 0 0 1 1.322-.47c.45-.086 1.017-.122 1.703-.107l.878-3.266a8.399 8.399 0 0 0-1.903.108c-.606.109-1.244.335-1.912.684-1.36.71-2.425 1.698-3.196 2.962a7.844 7.844 0 0 0-1.157 4.156c0 .8.118 1.438.354 1.912.234.475.548.836.94 1.08.392.246.982.408 1.767.487.837.092 1.393.185 1.665.283.273.1.48.241.62.428s.212.447.212.78c0 .6-.161 1.132-.479 1.601-.32.47-.78.861-1.377 1.174a5.566 5.566 0 0 1-1.647.546c-.603.104-1.335.126-2.203.067v3.353c1.055.133 2.268-.16 3.64-.875 1.487-.777 2.65-1.826 3.485-3.147a7.869 7.869 0 0 0 1.254-4.288c0-1.11-.224-1.931-.668-2.463-.447-.533-1.27-.866-2.472-1zm-13.231 13.942c-1.084.567-1.899.51-2.444-.168-.546-.678-.818-1.968-.818-3.872 0-1.9.275-3.478.826-4.733.552-1.254 1.37-2.164 2.453-2.731 2.163-1.13 3.244.224 3.244 4.059 0 3.829-1.087 6.31-3.261 7.445zm.017-14.51c-1.975 1.034-3.491 2.572-4.55 4.619-1.057 2.047-1.585 4.487-1.585 7.32 0 2.835.527 4.733 1.581 5.696 1.055.963 2.567.93 4.537-.098 1.969-1.029 3.48-2.574 4.535-4.639 1.055-2.064 1.583-4.505 1.583-7.325 0-2.826-.524-4.719-1.568-5.679-1.048-.96-2.558-.923-4.533.107zm-11.367 13.559c-.416.656-1.043 1.202-1.882 1.64l-.896.468v-5.055l1.24-.646c.745-.39 1.29-.472 1.64-.251.347.222.522.755.522 1.602 0 .84-.208 1.586-.624 2.242zm2.159-7.147c-.812-.467-1.998-.293-3.558.523L84 101.972V119l2.725-1.423v-6.056l1.169-.61c1.594-.833 2.824-1.96 3.688-3.383.864-1.421 1.296-3.049 1.296-4.88 0-1.763-.406-2.876-1.216-3.34z"/>
        <path fill="#ECDCCD" fill-rule="nonzero" d="M0 80a2 2 0 1 1 4 0c0 38.108 30.892 69 69 69 38.108 0 69-30.892 69-69a2 2 0 0 1 4 0c0 40.317-32.683 73-73 73S0 120.317 0 80z"/>
    </g>
</svg>
