<?xml version="1.0" encoding="UTF-8"?>
<svg width="145px" height="40px" viewBox="0 0 145 40" version="1.1" xmlns="http://www.w3.org/2000/svg" xmlns:xlink="http://www.w3.org/1999/xlink">
    <!-- Generator: sketchtool 52.2 (67145) - http://www.bohemiancoding.com/sketch -->
    <title>650D5C1F-B8AE-4D21-8BBF-3EFFD795B487</title>
    <desc>Created with sketchtool.</desc>
    <g id="Landing-v.4" stroke="none" stroke-width="1" fill="none" fill-rule="evenodd">
        <g id="Landing---Desktop-HD" transform="translate(-100.000000, -80.000000)" fill="#333333">
            <g id="Logo" transform="translate(100.000000, 80.000000)">
                <path d="M13.6044395,37.8329357 C12.6416211,36.8711934 11.3097825,36.2760675 9.83837331,36.2760675 C7.4522659,36.2760675 5.43319337,37.8410947 4.75964551,39.9966667 C2.09449207,38.7145517 0.254946317,35.9888497 0.254946317,32.8334988 C0.254946317,31.4350398 0.624096218,30.0613594 1.32509048,28.851279 L15.4615213,4.44848518 C17.6608406,0.65194444 22.5214456,-0.642859359 26.3179863,1.55645995 C27.5178725,2.25154875 28.5149227,3.24859895 29.2100115,4.44848518 L43.3464424,28.851279 C45.5457617,32.6478197 44.2509579,37.5084246 40.4544171,39.7077439 C40.3507842,39.767778 40.2459514,39.8253782 40.1400059,39.8805211 C39.4312306,37.7851051 37.4420981,36.2760675 35.0990615,36.2760675 C33.6276523,36.2760675 32.2958138,36.8711934 31.3329953,37.8329357 C30.8962605,37.5197798 30.3602713,37.3353194 29.7810219,37.3353194 C28.6783878,37.3353194 27.7325082,38.0037168 27.3296084,38.9558682 C25.5466487,37.1732111 24.1735057,34.7617601 23.4458645,32.3038729 L29.2723587,32.3038729 C29.6614529,32.3038729 30.0448995,32.2107732 30.390673,32.0323494 C31.5875951,31.4147214 32.0572058,29.943738 31.4395779,28.7468159 L24.3721597,15.0506267 C24.1353128,14.591633 23.758855,14.219688 23.2970385,13.9883934 C22.0927554,13.3852443 20.627542,13.8725597 20.0243929,15.0768429 L13.1648399,28.7730321 C12.9950502,29.1120444 12.9066448,29.4859761 12.9066448,29.8651302 C12.9066448,31.2120106 13.9985071,32.3038729 15.3453875,32.3038729 L21.2290569,32.3038729 C20.5266572,34.6766166 19.2190218,37.0066256 17.5200526,38.7692032 C17.0780203,37.9175076 16.1854849,37.3353194 15.1564129,37.3353194 C14.5771635,37.3353194 14.0411743,37.5197798 13.6044395,37.8329357 Z" id="Combined-Shape"></path>
                <path d="M55.6509822,22.7017544 L57.7958074,22.7017544 C58.190258,22.7017544 58.4121365,22.4561404 58.5107492,22.2105263 L59.7187542,19.5578947 L67.0900502,19.5578947 L68.2980552,22.2105263 C68.4706274,22.554386 68.6431995,22.7017544 69.012997,22.7017544 L71.1578222,22.7017544 C71.5276197,22.7017544 71.724845,22.3824561 71.576926,22.0631579 L63.9837515,5.53333333 C63.909792,5.38596491 63.8111794,5.26315789 63.5646478,5.26315789 L63.3181161,5.26315789 C63.0962376,5.26315789 62.9729718,5.38596491 62.8990123,5.53333333 L55.2318784,22.0631579 C55.0839594,22.3824561 55.2811847,22.7017544 55.6509822,22.7017544 L55.6509822,22.7017544 Z M60.9267592,16.8315789 L63.3427693,11.4280702 L63.4167288,11.4280702 L65.8820452,16.8315789 L60.9267592,16.8315789 Z M76.3884018,22.2350877 C76.3884018,22.4807018 76.5856271,22.7017544 76.8568119,22.7017544 L79.124903,22.7017544 C79.3714346,22.7017544 79.5933131,22.4807018 79.5933131,22.2350877 L79.5933131,15.9719298 L82.3298143,15.9719298 L85.6086851,22.4807018 C85.6579914,22.5789474 85.7812572,22.7017544 86.0031357,22.7017544 L88.5917179,22.7017544 C89.0108217,22.7017544 89.1833938,22.3087719 89.0108217,21.9894737 L85.6333382,15.7508772 C87.7781635,14.8912281 89.2820065,13.0491228 89.2820065,10.7894737 C89.2820065,7.86666667 86.8659964,5.50877193 83.9076168,5.50877193 L76.8568119,5.50877193 C76.5856271,5.50877193 76.3884018,5.72982456 76.3884018,5.9754386 L76.3884018,22.2350877 Z M79.6179663,13.3438596 L79.6179663,8.45614035 L83.636432,8.45614035 C84.9430496,8.45614035 86.0770952,9.53684211 86.0770952,10.8385965 C86.0770952,12.2140351 84.9430496,13.3438596 83.636432,13.3438596 L79.6179663,13.3438596 Z M95.3754468,22.2350877 C95.3754468,22.4807018 95.5726721,22.7017544 95.8438569,22.7017544 L105.877695,22.7017544 C106.148879,22.7017544 106.346105,22.4807018 106.346105,22.2350877 L106.346105,20.2210526 C106.346105,19.9754386 106.148879,19.754386 105.877695,19.754386 L98.5803581,19.754386 L98.5803581,15.4561404 L104.66969,15.4561404 C104.916221,15.4561404 105.1381,15.2596491 105.1381,14.9894737 L105.1381,12.9508772 C105.1381,12.7052632 104.916221,12.4842105 104.66969,12.4842105 L98.5803581,12.4842105 L98.5803581,8.45614035 L105.877695,8.45614035 C106.148879,8.45614035 106.346105,8.23508772 106.346105,7.98947368 L106.346105,5.9754386 C106.346105,5.72982456 106.148879,5.50877193 105.877695,5.50877193 L95.8438569,5.50877193 C95.5726721,5.50877193 95.3754468,5.72982456 95.3754468,5.9754386 L95.3754468,22.2350877 Z M115.784158,22.2350877 C115.784158,22.4807018 116.006036,22.7017544 116.252568,22.7017544 L118.545312,22.7017544 C118.791844,22.7017544 119.013722,22.4807018 119.013722,22.2350877 L119.013722,8.45614035 L122.785656,8.45614035 C123.056841,8.45614035 123.254066,8.23508772 123.254066,7.98947368 L123.254066,5.9754386 C123.254066,5.72982456 123.056841,5.50877193 122.785656,5.50877193 L112.012224,5.50877193 C111.741039,5.50877193 111.543813,5.72982456 111.543813,5.9754386 L111.543813,7.98947368 C111.543813,8.23508772 111.741039,8.45614035 112.012224,8.45614035 L115.784158,8.45614035 L115.784158,22.2350877 Z M126.183594,14.1298246 C126.183594,19.0421053 130.103447,22.9473684 135.034079,22.9473684 C139.964712,22.9473684 143.909218,19.0421053 143.909218,14.1298246 C143.909218,9.21754386 139.964712,5.26315789 135.034079,5.26315789 C130.103447,5.26315789 126.183594,9.21754386 126.183594,14.1298246 L126.183594,14.1298246 Z M129.331071,14.1298246 C129.331071,11.0350877 131.870347,8.45614035 134.976646,8.45614035 C138.082944,8.45614035 140.646873,11.0350877 140.646873,14.1298246 C140.646873,17.2245614 138.082944,19.754386 134.976646,19.754386 C131.870347,19.754386 129.331071,17.2245614 129.331071,14.1298246 L129.331071,14.1298246 Z" id="ARETO"></path>
                <path d="M55.4456396,34.309886 L56.834603,34.309886 C58.2569288,34.309886 59.4025071,33.1775056 59.4025071,31.7684995 C59.4025071,30.3732395 58.2546611,29.2430933 56.834603,29.2430933 L55.4456396,29.2430933 L55.4456396,34.309886 Z M55.055664,34.692379 L55.055664,28.8606003 L56.834603,28.8606003 C58.4645783,28.8606003 59.7924828,30.1618299 59.7924828,31.7684995 C59.7924828,33.3884217 58.4673276,34.692379 56.834603,34.692379 L55.055664,34.692379 Z M64.3296865,29.3869161 L64.0665286,29.3869161 L64.3296865,29.1237582 L64.3296865,29.3869161 Z M64.3296865,31.3295582 L64.3296865,31.5927161 L64.0665286,31.3295582 L64.3296865,31.3295582 Z M64.3296865,31.9996968 L64.0665286,31.9996968 L64.3296865,31.7365389 L64.3296865,31.9996968 Z M64.3296865,34.1660632 L64.3296865,34.4292211 L64.0665286,34.1660632 L64.3296865,34.1660632 Z M67.0360561,34.5011325 C67.0356434,34.5064094 67.0354331,34.5117388 67.0354331,34.5171128 L67.0354331,34.4851522 C67.0354331,34.4905263 67.0356434,34.4958557 67.0360561,34.5011325 Z M63.8033707,31.855874 L63.8033707,31.473381 L64.1853264,31.473381 L64.1853264,31.855874 L63.8033707,31.855874 Z M66.6510959,31.6646275 C66.6506831,31.6699044 66.6504728,31.6752338 66.6504728,31.6806078 L66.6504728,31.6486472 C66.6504728,31.6540213 66.6506831,31.6593506 66.6510959,31.6646275 Z M67.0360561,29.0518468 C67.0356434,29.0571237 67.0354331,29.0624531 67.0354331,29.0678271 L67.0354331,29.0358665 C67.0354331,29.0412406 67.0356434,29.04657 67.0360561,29.0518468 Z M64.1853264,29.2430933 L63.9783086,29.2430933 C64.0913474,29.2430933 64.1853264,29.1494641 64.1853264,29.0358665 L64.1853264,29.2430933 Z M64.1853264,34.309886 L64.1853264,34.5171128 C64.1853264,34.4035152 64.0913474,34.309886 63.9783086,34.309886 L64.1853264,34.309886 Z M70.752692,29.1102771 L70.7360206,29.0711434 L70.7504745,29.1059647 C70.7511965,29.1074034 70.7519357,29.108841 70.752692,29.1102771 Z M80.6603947,29.3869161 L80.3972368,29.3869161 L80.6603947,29.1237582 L80.6603947,29.3869161 Z M80.6603947,31.3295582 L80.6603947,31.5927161 L80.3972368,31.3295582 L80.6603947,31.3295582 Z M80.6603947,31.9996968 L80.3972368,31.9996968 L80.6603947,31.7365389 L80.6603947,31.9996968 Z M80.6603947,34.1660632 L80.6603947,34.4292211 L80.3972368,34.1660632 L80.6603947,34.1660632 Z M83.3667644,34.5011325 C83.3663516,34.5064094 83.3661413,34.5117388 83.3661413,34.5171128 L83.3661413,34.4851522 C83.3661413,34.4905263 83.3663516,34.4958557 83.3667644,34.5011325 Z M82.9818041,31.6646275 C82.9813913,31.6699044 82.981181,31.6752338 82.981181,31.6806078 L82.981181,31.6486472 C82.981181,31.6540213 82.9813913,31.6593506 82.9818041,31.6646275 Z M83.3667644,29.0518468 C83.3663516,29.0571237 83.3661413,29.0624531 83.3661413,29.0678271 L83.3661413,29.0358665 C83.3661413,29.0412406 83.3663516,29.04657 83.3667644,29.0518468 Z M80.5160346,29.2430933 L80.3090168,29.2430933 C80.4220556,29.2430933 80.5160346,29.1494641 80.5160346,29.0358665 L80.5160346,29.2430933 Z M80.5160346,34.309886 L80.5160346,34.5171128 C80.5160346,34.4035152 80.4220556,34.309886 80.3090168,34.309886 L80.5160346,34.309886 Z M88.4056008,34.1660632 L88.4056008,34.4292211 L88.1424429,34.1660632 L88.4056008,34.1660632 Z M90.7350301,34.5011325 C90.7346174,34.5064094 90.7344071,34.5117388 90.7344071,34.5171128 L90.7344071,34.4851522 C90.7344071,34.4905263 90.7346174,34.4958557 90.7350301,34.5011325 Z M88.0776166,29.2425135 C88.0831071,29.2428975 88.0886773,29.2430933 88.0943229,29.2430933 L88.0622428,29.2430933 C88.0674096,29.2430933 88.0725366,29.2428977 88.0776166,29.2425135 Z M88.2692607,34.309886 L88.2692607,34.5171128 C88.2692607,34.4035152 88.1752817,34.309886 88.0622428,34.309886 L88.2692607,34.309886 Z M95.1304616,31.7844798 C95.1304616,33.2414024 96.2920553,34.3897876 97.7625258,34.3897876 C99.2347777,34.3897876 100.40261,33.2396498 100.40261,31.7844798 C100.40261,30.3257794 99.2311994,29.1631918 97.7625258,29.1631918 C96.2956235,29.1631918 95.1304616,30.3240169 95.1304616,31.7844798 Z M94.7485059,31.7844798 C94.7485059,30.112802 96.0855858,28.7806988 97.7625258,28.7806988 C99.4407771,28.7806988 100.784566,30.1140983 100.784566,31.7844798 C100.784566,33.4522748 99.4434378,34.7722806 97.7625258,34.7722806 C96.0829398,34.7722806 94.7485059,33.4535566 94.7485059,31.7844798 Z M105.769085,29.2430933 L105.769085,29.0358665 C105.769085,29.1494641 105.675106,29.2430933 105.562067,29.2430933 L105.769085,29.2430933 Z M105.769085,32.3522981 L105.38713,32.3522981 L105.38713,34.5171128 C105.38713,34.4089347 105.472356,34.318865 105.578107,34.3105173 C105.683859,34.318865 105.769085,34.4089347 105.769085,34.5171128 L105.769085,32.3522981 Z M105.38713,32.7347911 L105.38713,28.8606003 L107.230229,28.8606003 C108.303919,28.8606003 109.185608,29.7275246 109.185608,30.7857105 C109.185608,31.856689 108.307105,32.7347911 107.238249,32.7347911 L105.38713,32.7347911 Z M113.112736,34.4839269 C113.112523,34.4848911 113.11232,34.4858535 113.112128,34.4868138 L113.112736,34.4839269 Z M114.275206,28.9681667 L114.275234,28.9680356 L114.271549,28.9565982 C114.272676,28.9605302 114.273897,28.9643864 114.275206,28.9681667 Z M114.666048,28.9558959 L114.666366,28.9568882 C114.667733,28.9507917 114.668879,28.9445075 114.669792,28.9380352 L114.666048,28.9558959 Z M116.073032,34.5481565 C116.071933,34.5514043 116.0709,34.5547112 116.069936,34.5580771 L116.073043,34.548189 L116.073032,34.5481565 Z M124.463891,29.3869161 L124.200733,29.3869161 L124.463891,29.1237582 L124.463891,29.3869161 Z M124.463891,31.3295582 L124.463891,31.5927161 L124.200733,31.3295582 L124.463891,31.3295582 Z M124.463891,31.9996968 L124.200733,31.9996968 L124.463891,31.7365389 L124.463891,31.9996968 Z M124.463891,34.1660632 L124.463891,34.4292211 L124.200733,34.1660632 L124.463891,34.1660632 Z M127.17026,34.5011325 C127.169848,34.5064094 127.169637,34.5117388 127.169637,34.5171128 L127.169637,34.4851522 C127.169637,34.4905263 127.169848,34.4958557 127.17026,34.5011325 Z M126.7853,31.6646275 C126.784887,31.6699044 126.784677,31.6752338 126.784677,31.6806078 L126.784677,31.6486472 C126.784677,31.6540213 126.784887,31.6593506 126.7853,31.6646275 Z M127.17026,29.0518468 C127.169848,29.0571237 127.169637,29.0624531 127.169637,29.0678271 L127.169637,29.0358665 C127.169637,29.0412406 127.169848,29.04657 127.17026,29.0518468 Z M124.319531,29.2430933 L124.112513,29.2430933 C124.225552,29.2430933 124.319531,29.1494641 124.319531,29.0358665 L124.319531,29.2430933 Z M124.319531,34.309886 L124.319531,34.5171128 C124.319531,34.4035152 124.225552,34.309886 124.112513,34.309886 L124.319531,34.309886 Z M142.180297,34.1726872 C142.174999,34.172269 142.16965,34.1720559 142.164257,34.1720559 L142.196337,34.1720559 C142.190944,34.1720559 142.185595,34.172269 142.180297,34.1726872 Z M141.989319,29.1052632 L141.989319,28.7227702 L142.371275,28.7227702 L142.371275,29.1052632 L141.989319,29.1052632 Z M143.730284,28.9140167 C143.729871,28.9192935 143.729661,28.9246229 143.729661,28.929997 L143.729661,28.8980363 C143.729661,28.9034104 143.729871,28.9087398 143.730284,28.9140167 Z M140.646351,28.9140167 C140.646763,28.9087398 140.646974,28.9034104 140.646974,28.8980363 L140.646974,28.929997 C140.646974,28.9246229 140.646763,28.9192935 140.646351,28.9140167 Z M141.844959,29.2490859 L141.844959,28.9859281 L142.108117,29.2490859 L141.844959,29.2490859 Z M142.515635,29.2490859 L142.252477,29.2490859 L142.515635,28.9859281 L142.515635,29.2490859 Z" id="DEVELOPMENT" stroke="#333333" stroke-width="0.526315789"></path>
            </g>
        </g>
    </g>
</svg>