<?xml version="1.0" encoding="UTF-8"?>
<svg width="24px" height="24px" viewBox="0 0 24 24" version="1.1" xmlns="http://www.w3.org/2000/svg" xmlns:xlink="http://www.w3.org/1999/xlink">
    <!-- Generator: sketchtool 52.2 (67145) - http://www.bohemiancoding.com/sketch -->
    <title>46C620F7-1417-4C22-900B-2B3EFAAC76A9</title>
    <desc>Created with sketchtool.</desc>
    <g id="Landing-v.4" stroke="none" stroke-width="1" fill="none" fill-rule="evenodd">
        <g id="Landing---Desktop-HD" transform="translate(-622.000000, -3168.000000)" fill="#FF3747" fill-rule="nonzero">
            <g id="icons8-email" transform="translate(619.000000, 3165.000000)">
                <path d="M15.1875,3 C7.824219,2.890625 1.914063,9.484375 3.15625,17.03125 C4,22.152344 8.203125,26.179688 13.34375,26.875 C16.808594,27.34375 20.046875,26.34375 22.5,24.375 L21.25,22.8125 C19.203125,24.453125 16.511719,25.300781 13.59375,24.90625 C9.339844,24.332031 5.851563,20.953125 5.15625,16.71875 C4.109375,10.347656 8.992188,4.910156 15.15625,5 C20.410156,5.078125 24.839844,9.433594 25,14.6875 C25.003906,14.800781 25,14.910156 25,15.03125 C24.992188,17.234375 23.207031,19 21,19 C19.882813,19 19,18.117188 19,17 L19,9 L17,9 L17,9.78125 C16.28125,9.292969 15.425781,9 14.5,9 C12.027344,9 10,11.027344 10,13.5 L10,16.5 C10,18.972656 12.027344,21 14.5,21 C15.847656,21 17.046875,20.386719 17.875,19.4375 C18.609375,20.371094 19.730469,21 21,21 C24.285156,21 26.988281,18.320313 27,15.03125 C27,14.898438 27.003906,14.769531 27,14.625 C26.808594,8.289063 21.523438,3.09375 15.1875,3 Z M14.5,11 C15.890625,11 17,12.109375 17,13.5 L17,16.5 C17,17.890625 15.890625,19 14.5,19 C13.109375,19 12,17.890625 12,16.5 L12,13.5 C12,12.109375 13.109375,11 14.5,11 Z" id="Shape"></path>
            </g>
        </g>
    </g>
</svg>