<?xml version="1.0" encoding="UTF-8"?>
<svg width="46px" height="46px" viewBox="0 0 46 46" version="1.1" xmlns="http://www.w3.org/2000/svg" xmlns:xlink="http://www.w3.org/1999/xlink">
    <!-- Generator: sketchtool 52.2 (67145) - http://www.bohemiancoding.com/sketch -->
    <title>43C3B1F7-5C4B-4F34-B86E-4A587226168A@2x</title>
    <desc>Created with sketchtool.</desc>
    <defs>
        <polygon id="path-1" points="0 0 1 0 1 3777 0 3777"></polygon>
        <mask id="mask-2" maskContentUnits="userSpaceOnUse" maskUnits="objectBoundingBox" x="0" y="0" width="1" height="3777" fill="white">
            <use xlink:href="#path-1"></use>
        </mask>
    </defs>
    <g id="Landing-v.4" stroke="none" stroke-width="1" fill="none" fill-rule="evenodd">
        <g id="Landing---Mobile" transform="translate(-30.000000, -621.000000)">
            <g id="Lines" opacity="0.100000001" transform="translate(30.000000, 0.000000)" stroke="#000000" stroke-dasharray="6,6" stroke-width="2">
                <use id="Rectangle-2" mask="url(#mask-2)" xlink:href="#path-1"></use>
            </g>
            <g id="Corporate-icon" transform="translate(30.000000, 621.000000)" fill="#FF3747" fill-rule="nonzero">
                <path d="M5,6 L5,18.3636364 L42,18.3636364 L42,6 L5,6 Z M8.08333333,9.09090909 L38.9166667,9.09090909 L38.9166667,15.2727273 L8.08333333,15.2727273 L8.08333333,9.09090909 Z M11.1666667,10.6363636 C10.317546,10.6363636 9.625,11.3306112 9.625,12.1818182 C9.625,13.0330252 10.317546,13.7272727 11.1666667,13.7272727 C12.0157874,13.7272727 12.7083333,13.0330252 12.7083333,12.1818182 C12.7083333,11.3306112 12.0157874,10.6363636 11.1666667,10.6363636 Z M15.7916667,10.6363636 C14.942546,10.6363636 14.25,11.3306112 14.25,12.1818182 C14.25,13.0330252 14.942546,13.7272727 15.7916667,13.7272727 C16.6407874,13.7272727 17.3333333,13.0330252 17.3333333,12.1818182 C17.3333333,11.3306112 16.6407874,10.6363636 15.7916667,10.6363636 Z M20.4166667,10.6363636 C19.567546,10.6363636 18.875,11.3306112 18.875,12.1818182 C18.875,13.0330252 19.567546,13.7272727 20.4166667,13.7272727 C21.2657874,13.7272727 21.9583333,13.0330252 21.9583333,12.1818182 C21.9583333,11.3306112 21.2657874,10.6363636 20.4166667,10.6363636 Z M5,19.9090909 L5,40 L42,40 L42,19.9090909 L38.9166667,19.9090909 L38.9166667,36.9090909 L8.08333333,36.9090909 L8.08333333,19.9090909 L5,19.9090909 Z M11.1666667,21.4545455 L11.1666667,33.8181818 L23.5,33.8181818 L23.5,21.4545455 L11.1666667,21.4545455 Z M26.5833333,21.4545455 L26.5833333,24.5454545 L35.8333333,24.5454545 L35.8333333,21.4545455 L26.5833333,21.4545455 Z M14.25,24.5454545 L20.4166667,24.5454545 L20.4166667,30.7272727 L14.25,30.7272727 L14.25,24.5454545 Z M26.5833333,26.0909091 L26.5833333,29.1818182 L35.8333333,29.1818182 L35.8333333,26.0909091 L26.5833333,26.0909091 Z M26.5833333,30.7272727 L26.5833333,33.8181818 L35.8333333,33.8181818 L35.8333333,30.7272727 L26.5833333,30.7272727 Z" id="Shape"></path>
            </g>
        </g>
    </g>
</svg>