<?xml version="1.0" encoding="UTF-8"?>
<svg width="46px" height="46px" viewBox="0 0 46 46" version="1.1" xmlns="http://www.w3.org/2000/svg" xmlns:xlink="http://www.w3.org/1999/xlink">
    <!-- Generator: sketchtool 52.2 (67145) - http://www.bohemiancoding.com/sketch -->
    <title>9AA30BD4-0258-4104-A71C-D4336A63CF3D@2x</title>
    <desc>Created with sketchtool.</desc>
    <defs>
        <polygon id="path-1" points="0 0 1 0 1 3777 0 3777"></polygon>
        <mask id="mask-2" maskContentUnits="userSpaceOnUse" maskUnits="objectBoundingBox" x="0" y="0" width="1" height="3777" fill="white">
            <use xlink:href="#path-1"></use>
        </mask>
    </defs>
    <g id="Landing-v.4" stroke="none" stroke-width="1" fill="none" fill-rule="evenodd">
        <g id="Landing---Mobile" transform="translate(-30.000000, -885.000000)">
            <g id="Lines" opacity="0.100000001" transform="translate(30.000000, 0.000000)" stroke="#000000" stroke-dasharray="6,6" stroke-width="2">
                <use id="Rectangle-2" mask="url(#mask-2)" xlink:href="#path-1"></use>
            </g>
            <g id="Automatisation-icon" transform="translate(30.000000, 885.000000)" fill="#FF3747" fill-rule="nonzero">
                <path d="M29.715625,4 L26.8332816,5.18218828 L27.7534383,7.45515664 C26.8820316,8.02796836 26.1264066,8.75921836 25.5475,9.62453164 L23.231875,8.64953164 L22.0192184,11.5257816 L24.353125,12.506875 C24.2617184,12.9821883 24.206875,13.4696883 24.206875,13.969375 C24.206875,14.4629684 24.2617184,14.944375 24.353125,15.4135934 L22.1410934,16.309375 L23.3232816,19.2039066 L25.5292184,18.3020316 C26.0776566,19.1064066 26.76625,19.8010934 27.5645316,20.355625 L26.57125,22.7078133 L29.4475,23.914375 L30.4225,21.6048434 C30.934375,21.7145316 31.4645316,21.769375 32.006875,21.769375 C32.5309383,21.769375 33.0367184,21.720625 33.5242184,21.623125 L34.4504684,23.89 L37.3389066,22.7078133 L36.4004684,20.404375 C37.1804684,19.868125 37.8507816,19.1978133 38.393125,18.4239066 L40.635625,19.3623434 L41.8482816,16.4860934 L39.6423434,15.5598434 C39.7520316,15.0479684 39.806875,14.5178133 39.806875,13.969375 C39.806875,13.481875 39.758125,13.0004684 39.6728133,12.5373434 L42.025,11.580625 L40.8489066,8.69218828 L38.490625,9.64890664 C37.9239066,8.801875 37.19875,8.07671836 36.3578133,7.51 L37.2901566,5.30406328 L34.4139066,4.09140664 L33.4754684,6.315625 C33.0001566,6.22421836 32.5126566,6.169375 32.006875,6.169375 C31.5498434,6.169375 31.0928133,6.218125 30.6540633,6.29734336 L29.715625,4 Z M32.006875,9.289375 C34.615,9.289375 36.686875,11.3673434 36.686875,13.969375 C36.686875,16.5775 34.615,18.649375 32.006875,18.649375 C29.4048434,18.649375 27.326875,16.5775 27.326875,13.969375 C27.326875,11.3673434 29.4048434,9.289375 32.006875,9.289375 Z M14.92,17.065 L14.92,20.3251566 C13.50625,20.5628133 12.214375,21.1478133 11.093125,21.9460934 L8.75921836,19.6182816 L6.55328164,21.8242184 L8.88718828,24.158125 C8.08890664,25.2854684 7.50390664,26.57125 7.26625,27.985 L4,27.985 L4,31.105 L7.26625,31.105 C7.50390664,32.51875 8.08890664,33.8045316 8.88718828,34.931875 L6.55328164,37.2657816 L8.75921836,39.4717184 L11.093125,37.1439066 C12.214375,37.9421883 13.50625,38.5271883 14.92,38.7648434 L14.92,42.025 L18.04,42.025 L18.04,38.7648434 C19.45375,38.5271883 20.745625,37.9421883 21.866875,37.1439066 L24.2007816,39.4717184 L26.4067184,37.2657816 L24.0728133,34.931875 C24.8710934,33.8045316 25.4560934,32.51875 25.69375,31.105 L28.96,31.105 L28.96,27.985 L25.69375,27.985 C25.4560934,26.57125 24.8710934,25.2854684 24.0728133,24.158125 L26.4067184,21.8242184 L24.2007816,19.6182816 L21.866875,21.9460934 C20.745625,21.1478133 19.45375,20.5628133 18.04,20.3251566 L18.04,17.065 L14.92,17.065 Z M16.48,23.305 C19.9473434,23.305 22.72,26.0776566 22.72,29.545 C22.72,33.0123434 19.9473434,35.785 16.48,35.785 C13.0126566,35.785 10.24,33.0123434 10.24,29.545 C10.24,26.0776566 13.0126566,23.305 16.48,23.305 Z" id="Shape"></path>
            </g>
        </g>
    </g>
</svg>