<?xml version="1.0" encoding="UTF-8"?>
<svg width="30px" height="20px" viewBox="0 0 30 20" version="1.1" xmlns="http://www.w3.org/2000/svg" xmlns:xlink="http://www.w3.org/1999/xlink">
    <!-- Generator: sketchtool 52.2 (67145) - http://www.bohemiancoding.com/sketch -->
    <title>71C6B12E-18C0-4413-8C5E-8E913B1217BE</title>
    <desc>Created with sketchtool.</desc>
    <g id="Landing-v.4" stroke="none" stroke-width="1" fill="none" fill-rule="evenodd">
        <g id="Landing---Desktop-HD" transform="translate(-1220.000000, -3132.000000)" fill="#0157FF" fill-rule="nonzero">
            <g id="icons8-behance" transform="translate(1220.000000, 3132.000000)">
                <path d="M0,0.75 L0,19.25 L8.9375,19.25 C9.765625,19.25 15.46875,19.082031 15.46875,13.875 C15.46875,10.621094 13.230469,9.515625 12.09375,9.1875 C12.929688,8.792969 14.59375,7.855469 14.59375,5.34375 C14.59375,3.945313 14.394531,0.75 8.6875,0.75 L0,0.75 Z M20.375,2.46875 L20.375,4.15625 L27.28125,4.15625 L27.28125,2.46875 L20.375,2.46875 Z M4.0625,3.90625 L7.875,3.90625 C8.234375,3.90625 10.65625,3.714844 10.65625,6.03125 C10.65625,8.011719 8.90625,8.21875 8.1875,8.21875 L4.0625,8.21875 L4.0625,3.90625 Z M24,5.6875 C18.777344,5.6875 17.6875,10.222656 17.6875,12.1875 C17.6875,18.019531 22.46875,18.6875 24,18.6875 C28.128906,18.6875 29.300781,16.015625 29.78125,14.53125 L26.78125,14.53125 C26.664063,14.914063 25.789063,16.15625 24.125,16.15625 C21.335938,16.15625 21.09375,13.976563 21.09375,13 L29.96875,13 C30.148438,9.625 28.671875,5.6875 24,5.6875 Z M23.90625,8.21875 C24.738281,8.21875 25.410156,8.460938 25.8125,8.90625 C26.214844,9.355469 26.511719,10.011719 26.59375,10.875 L21.09375,10.875 C21.109375,10.636719 21.164063,10.363281 21.25,10.0625 C21.335938,9.753906 21.46875,9.460938 21.6875,9.1875 C21.90625,8.917969 22.210938,8.683594 22.5625,8.5 C22.921875,8.3125 23.367188,8.21875 23.90625,8.21875 Z M4.0625,11 L8.46875,11 C9.34375,11 11.40625,11.136719 11.40625,13.65625 C11.40625,16.097656 8.808594,16.09375 8.40625,16.09375 L4.0625,16.09375 L4.0625,11 Z" id="Shape"></path>
            </g>
        </g>
    </g>
</svg>