<?xml version="1.0" standalone="no"?>
<!DOCTYPE svg PUBLIC "-//W3C//DTD SVG 20010904//EN"
 "http://www.w3.org/TR/2001/REC-SVG-20010904/DTD/svg10.dtd">
<svg version="1.0" xmlns="http://www.w3.org/2000/svg"
 width="700.000000pt" height="700.000000pt" viewBox="0 0 700.000000 700.000000"
 preserveAspectRatio="xMidYMid meet">
<metadata>
Created by potrace 1.11, written by Peter Selinger 2001-2013
</metadata>
<g transform="translate(0.000000,700.000000) scale(0.100000,-0.100000)"
fill="#000000" stroke="none">
<path d="M3317 6990 c-217 -37 -409 -152 -552 -331 -68 -85 -139 -247 -161
-364 -15 -79 -9 -276 10 -355 82 -328 347 -582 671 -644 132 -24 244 -19 415
19 67 15 242 112 311 172 151 132 245 298 285 498 19 98 12 279 -15 378 -82
302 -322 535 -631 613 -73 18 -259 26 -333 14z"/>
<path d="M1049 5966 c-2 -2 -24 -6 -49 -8 -56 -6 -171 -51 -230 -91 -118 -80
-214 -219 -245 -352 -15 -64 -21 -193 -11 -241 19 -93 59 -184 110 -249 53
-69 4789 -4800 4841 -4836 55 -39 158 -84 220 -97 70 -15 179 -14 249 2 62 15
174 60 186 76 3 4 13 11 23 16 10 6 40 32 67 58 212 206 243 534 74 768 -62
85 -4801 4820 -4865 4860 -54 34 -137 70 -194 83 -34 8 -170 16 -176 11z"/>
<path d="M5662 5949 c-75 -19 -133 -45 -197 -89 -22 -15 -394 -382 -828 -815
l-787 -788 417 -418 418 -418 785 785 c432 431 800 807 819 834 104 153 132
346 75 517 -44 133 -152 268 -264 330 -137 76 -295 99 -438 62z"/>
<path d="M1422 1831 c-431 -432 -798 -808 -816 -836 -127 -193 -130 -441 -9
-637 71 -115 215 -222 348 -259 28 -8 96 -14 155 -14 125 0 216 25 313 87 43
28 303 280 851 828 l790 789 -416 415 c-229 229 -420 415 -425 415 -4 -1 -360
-355 -791 -788z"/>
</g>
</svg>
