<svg xmlns="http://www.w3.org/2000/svg" width="37" height="29" viewBox="0 0 37 29">
    <path fill="#FFF" fill-rule="nonzero" d="M27.8 15.6c-2.181-.25-3.984-1.152-5.41-2.704-1.426-1.552-2.14-3.313-2.14-5.284 0-2.14.693-3.942 2.077-5.41S25.45 0 27.548 0c2.349 0 4.383.954 6.102 2.862 1.72 1.908 2.58 4.205 2.58 6.889 0 8.22-4.551 14.636-13.652 19.249l-2.453-4.53c5.117-2.516 7.675-5.472 7.675-8.87zm-20.062 0c-2.223-.25-4.047-1.152-5.473-2.704C.839 11.344.125 9.583.125 7.612c0-2.14.703-3.942 2.108-5.41C3.638.734 5.39 0 7.486 0c2.348 0 4.372.954 6.07 2.862 1.699 1.908 2.548 4.205 2.548 6.889 0 8.22-4.55 14.636-13.65 19.249L0 24.47c5.158-2.516 7.738-5.472 7.738-8.87z"/>
</svg>
