<svg xmlns="http://www.w3.org/2000/svg" width="17" height="15" viewBox="0 0 17 15">
    <path fill="#FFD06E" fill-rule="evenodd" d="M7.9.464c.33-.619.87-.618 1.2 0l1.63 3.056c.33.618 1.203 1.205 1.941 1.304l3.646.49c.737.1.904.574.37 1.055L14.05 8.75c-.533.48-.867 1.43-.74 2.11l.622 3.359c.126.68-.31.973-.97.652L9.7 13.284c-.66-.32-1.74-.32-2.4 0L4.04 14.87c-.66.32-1.097.027-.97-.652l.622-3.36c.126-.679-.208-1.628-.741-2.11L.313 6.37c-.534-.48-.367-.955.37-1.055l3.646-.49c.737-.099 1.61-.686 1.94-1.304L7.9.464z"/>
</svg>
